<?xml version="1.0" encoding="utf-8" standalone="no"?>
<!DOCTYPE svg PUBLIC "-//W3C//DTD SVG 1.1//EN"
  "http://www.w3.org/Graphics/SVG/1.1/DTD/svg11.dtd">
<svg xmlns:xlink="http://www.w3.org/1999/xlink" width="562.7575pt" height="345.705187pt" viewBox="0 0 562.7575 345.705187" xmlns="http://www.w3.org/2000/svg" version="1.1">
 <metadata>
  <rdf:RDF xmlns:dc="http://purl.org/dc/elements/1.1/" xmlns:cc="http://creativecommons.org/ns#" xmlns:rdf="http://www.w3.org/1999/02/22-rdf-syntax-ns#">
   <cc:Work>
    <dc:type rdf:resource="http://purl.org/dc/dcmitype/StillImage"/>
    <dc:date>2026-06-28T15:08:10.505769</dc:date>
    <dc:format>image/svg+xml</dc:format>
    <dc:creator>
     <cc:Agent>
      <dc:title>Matplotlib v3.10.8, https://matplotlib.org/</dc:title>
     </cc:Agent>
    </dc:creator>
   </cc:Work>
  </rdf:RDF>
 </metadata>
 <defs>
  <style type="text/css">*{stroke-linejoin: round; stroke-linecap: butt}</style>
 </defs>
 <g id="figure_1">
  <g id="patch_1">
   <path d="M 0 345.705187 
L 562.7575 345.705187 
L 562.7575 0 
L 0 0 
z
" style="fill: #fcfcfd"/>
  </g>
  <g id="axes_1">
   <g id="patch_2">
    <path d="M 64.5175 302.688 
L 555.5575 302.688 
L 555.5575 71.136 
L 64.5175 71.136 
z
" style="fill: #ffffff"/>
   </g>
   <g id="matplotlib.axis_1">
    <g id="xtick_1">
     <g id="line2d_1">
      <path d="M 83.841527 302.688 
L 83.841527 71.136 
" clip-path="url(#p81c8b1932f)" style="fill: none; stroke: #e6e8f0; stroke-linecap: round"/>
     </g>
     <g id="text_1">
      <!-- 0 -->
      <g style="fill: #6f768a" transform="translate(80.876683 320.331437) scale(0.11 -0.11)">
       <defs>
        <path id="SegoeUI-30" d="M 3188 2259 
Q 3188 1697 3086 1262 
Q 2984 828 2792 529 
Q 2600 231 2320 76 
Q 2041 -78 1684 -78 
Q 1347 -78 1083 70 
Q 819 219 637 503 
Q 456 788 362 1202 
Q 269 1616 269 2150 
Q 269 2738 367 3188 
Q 466 3638 656 3942 
Q 847 4247 1130 4401 
Q 1413 4556 1778 4556 
Q 3188 4556 3188 2259 
z
M 2663 2209 
Q 2663 4122 1753 4122 
Q 794 4122 794 2175 
Q 794 359 1734 359 
Q 2663 359 2663 2209 
z
" transform="scale(0.015625)"/>
       </defs>
       <use xlink:href="#SegoeUI-30"/>
      </g>
     </g>
    </g>
    <g id="xtick_2">
     <g id="line2d_2">
      <path d="M 143.76099 302.688 
L 143.76099 71.136 
" clip-path="url(#p81c8b1932f)" style="fill: none; stroke: #e6e8f0; stroke-linecap: round"/>
     </g>
     <g id="text_2">
      <!-- 20 -->
      <g style="fill: #6f768a" transform="translate(137.831302 320.331437) scale(0.11 -0.11)">
       <defs>
        <path id="SegoeUI-32" d="M 2413 3306 
Q 2413 3513 2348 3666 
Q 2284 3819 2173 3920 
Q 2063 4022 1913 4072 
Q 1763 4122 1588 4122 
Q 1438 4122 1294 4081 
Q 1150 4041 1014 3969 
Q 878 3897 751 3797 
Q 625 3697 516 3575 
L 516 4125 
Q 731 4334 998 4445 
Q 1266 4556 1650 4556 
Q 1925 4556 2159 4476 
Q 2394 4397 2566 4244 
Q 2738 4091 2836 3866 
Q 2934 3641 2934 3350 
Q 2934 3084 2873 2868 
Q 2813 2653 2689 2462 
Q 2566 2272 2378 2097 
Q 2191 1922 1938 1741 
Q 1622 1516 1417 1356 
Q 1213 1197 1092 1058 
Q 972 919 923 780 
Q 875 641 875 459 
L 3106 459 
L 3106 0 
L 341 0 
L 341 222 
Q 341 509 403 728 
Q 466 947 609 1144 
Q 753 1341 986 1537 
Q 1219 1734 1556 1981 
Q 1800 2156 1964 2315 
Q 2128 2475 2228 2634 
Q 2328 2794 2370 2958 
Q 2413 3122 2413 3306 
z
" transform="scale(0.015625)"/>
       </defs>
       <use xlink:href="#SegoeUI-32"/>
       <use xlink:href="#SegoeUI-30" transform="translate(53.90625 0)"/>
      </g>
     </g>
    </g>
    <g id="xtick_3">
     <g id="line2d_3">
      <path d="M 203.680453 302.688 
L 203.680453 71.136 
" clip-path="url(#p81c8b1932f)" style="fill: none; stroke: #e6e8f0; stroke-linecap: round"/>
     </g>
     <g id="text_3">
      <!-- 40 -->
      <g style="fill: #6f768a" transform="translate(197.750766 320.331437) scale(0.11 -0.11)">
       <defs>
        <path id="SegoeUI-34" d="M 2656 4481 
L 2656 1522 
L 3231 1522 
L 3231 1053 
L 2656 1053 
L 2656 0 
L 2150 0 
L 2150 1053 
L 44 1053 
L 44 1497 
Q 338 1828 638 2204 
Q 938 2581 1211 2968 
Q 1484 3356 1717 3742 
Q 1950 4128 2109 4481 
L 2656 4481 
z
M 622 1522 
L 2150 1522 
L 2150 3716 
Q 1916 3306 1706 2984 
Q 1497 2663 1308 2400 
Q 1119 2138 947 1925 
Q 775 1713 622 1522 
z
" transform="scale(0.015625)"/>
       </defs>
       <use xlink:href="#SegoeUI-34"/>
       <use xlink:href="#SegoeUI-30" transform="translate(53.90625 0)"/>
      </g>
     </g>
    </g>
    <g id="xtick_4">
     <g id="line2d_4">
      <path d="M 263.599916 302.688 
L 263.599916 71.136 
" clip-path="url(#p81c8b1932f)" style="fill: none; stroke: #e6e8f0; stroke-linecap: round"/>
     </g>
     <g id="text_4">
      <!-- 60 -->
      <g style="fill: #6f768a" transform="translate(257.670229 320.331437) scale(0.11 -0.11)">
       <defs>
        <path id="SegoeUI-36" d="M 3194 1422 
Q 3194 1094 3087 819 
Q 2981 544 2793 344 
Q 2606 144 2347 33 
Q 2088 -78 1784 -78 
Q 1447 -78 1180 62 
Q 913 203 727 467 
Q 541 731 444 1112 
Q 347 1494 347 1972 
Q 347 2556 476 3032 
Q 606 3509 845 3848 
Q 1084 4188 1421 4372 
Q 1759 4556 2175 4556 
Q 2638 4556 2919 4428 
L 2919 3944 
Q 2572 4122 2188 4122 
Q 1888 4122 1647 3987 
Q 1406 3853 1234 3608 
Q 1063 3363 970 3016 
Q 878 2669 878 2244 
L 891 2244 
Q 1200 2803 1913 2803 
Q 2206 2803 2442 2703 
Q 2678 2603 2845 2420 
Q 3013 2238 3103 1984 
Q 3194 1731 3194 1422 
z
M 2669 1356 
Q 2669 1591 2609 1778 
Q 2550 1966 2439 2097 
Q 2328 2228 2165 2298 
Q 2003 2369 1797 2369 
Q 1606 2369 1443 2297 
Q 1281 2225 1162 2101 
Q 1044 1978 976 1814 
Q 909 1650 909 1466 
Q 909 1234 975 1032 
Q 1041 831 1159 681 
Q 1278 531 1442 445 
Q 1606 359 1806 359 
Q 2000 359 2159 432 
Q 2319 506 2431 637 
Q 2544 769 2606 951 
Q 2669 1134 2669 1356 
z
" transform="scale(0.015625)"/>
       </defs>
       <use xlink:href="#SegoeUI-36"/>
       <use xlink:href="#SegoeUI-30" transform="translate(53.90625 0)"/>
      </g>
     </g>
    </g>
    <g id="xtick_5">
     <g id="line2d_5">
      <path d="M 323.519379 302.688 
L 323.519379 71.136 
" clip-path="url(#p81c8b1932f)" style="fill: none; stroke: #e6e8f0; stroke-linecap: round"/>
     </g>
     <g id="text_5">
      <!-- 80 -->
      <g style="fill: #6f768a" transform="translate(317.589692 320.331437) scale(0.11 -0.11)">
       <defs>
        <path id="SegoeUI-38" d="M 281 1250 
Q 281 1428 337 1608 
Q 394 1788 498 1944 
Q 603 2100 758 2228 
Q 913 2356 1109 2431 
Q 819 2594 647 2848 
Q 475 3103 475 3413 
Q 475 3659 570 3868 
Q 666 4078 834 4231 
Q 1003 4384 1234 4470 
Q 1466 4556 1734 4556 
Q 2006 4556 2237 4468 
Q 2469 4381 2637 4228 
Q 2806 4075 2900 3865 
Q 2994 3656 2994 3413 
Q 2994 3103 2822 2848 
Q 2650 2594 2366 2431 
Q 2559 2356 2712 2228 
Q 2866 2100 2970 1944 
Q 3075 1788 3131 1608 
Q 3188 1428 3188 1250 
Q 3188 956 3081 712 
Q 2975 469 2783 295 
Q 2591 122 2323 25 
Q 2056 -72 1734 -72 
Q 1416 -72 1150 25 
Q 884 122 690 295 
Q 497 469 389 712 
Q 281 956 281 1250 
z
M 838 1294 
Q 838 1084 902 915 
Q 966 747 1083 628 
Q 1200 509 1367 445 
Q 1534 381 1738 381 
Q 1934 381 2100 447 
Q 2266 513 2386 631 
Q 2506 750 2573 919 
Q 2641 1088 2641 1294 
Q 2641 1481 2577 1645 
Q 2513 1809 2394 1934 
Q 2275 2059 2109 2131 
Q 1944 2203 1738 2203 
Q 1544 2203 1380 2136 
Q 1216 2069 1095 1948 
Q 975 1828 906 1661 
Q 838 1494 838 1294 
z
M 997 3372 
Q 997 3213 1055 3077 
Q 1113 2941 1214 2839 
Q 1316 2738 1450 2680 
Q 1584 2622 1738 2622 
Q 1891 2622 2027 2681 
Q 2163 2741 2263 2842 
Q 2363 2944 2422 3080 
Q 2481 3216 2481 3372 
Q 2481 3534 2423 3671 
Q 2366 3809 2266 3909 
Q 2166 4009 2030 4067 
Q 1894 4125 1738 4125 
Q 1572 4125 1436 4065 
Q 1300 4006 1201 3904 
Q 1103 3803 1050 3665 
Q 997 3528 997 3372 
z
" transform="scale(0.015625)"/>
       </defs>
       <use xlink:href="#SegoeUI-38"/>
       <use xlink:href="#SegoeUI-30" transform="translate(53.90625 0)"/>
      </g>
     </g>
    </g>
    <g id="xtick_6">
     <g id="line2d_6">
      <path d="M 383.438842 302.688 
L 383.438842 71.136 
" clip-path="url(#p81c8b1932f)" style="fill: none; stroke: #e6e8f0; stroke-linecap: round"/>
     </g>
     <g id="text_6">
      <!-- 100 -->
      <g style="fill: #6f768a" transform="translate(374.544311 320.331437) scale(0.11 -0.11)">
       <defs>
        <path id="SegoeUI-31" d="M 2263 0 
L 1750 0 
L 1750 3872 
Q 1691 3813 1577 3736 
Q 1463 3659 1320 3584 
Q 1178 3509 1020 3443 
Q 863 3378 713 3341 
L 713 3859 
Q 881 3906 1070 3986 
Q 1259 4066 1442 4164 
Q 1625 4263 1787 4370 
Q 1950 4478 2069 4581 
L 2263 4581 
L 2263 0 
z
" transform="scale(0.015625)"/>
       </defs>
       <use xlink:href="#SegoeUI-31"/>
       <use xlink:href="#SegoeUI-30" transform="translate(53.90625 0)"/>
       <use xlink:href="#SegoeUI-30" transform="translate(107.8125 0)"/>
      </g>
     </g>
    </g>
    <g id="xtick_7">
     <g id="line2d_7">
      <path d="M 443.358305 302.688 
L 443.358305 71.136 
" clip-path="url(#p81c8b1932f)" style="fill: none; stroke: #e6e8f0; stroke-linecap: round"/>
     </g>
     <g id="text_7">
      <!-- 120 -->
      <g style="fill: #6f768a" transform="translate(434.463774 320.331437) scale(0.11 -0.11)">
       <use xlink:href="#SegoeUI-31"/>
       <use xlink:href="#SegoeUI-32" transform="translate(53.90625 0)"/>
       <use xlink:href="#SegoeUI-30" transform="translate(107.8125 0)"/>
      </g>
     </g>
    </g>
    <g id="xtick_8">
     <g id="line2d_8">
      <path d="M 503.277768 302.688 
L 503.277768 71.136 
" clip-path="url(#p81c8b1932f)" style="fill: none; stroke: #e6e8f0; stroke-linecap: round"/>
     </g>
     <g id="text_8">
      <!-- 140 -->
      <g style="fill: #6f768a" transform="translate(494.383237 320.331437) scale(0.11 -0.11)">
       <use xlink:href="#SegoeUI-31"/>
       <use xlink:href="#SegoeUI-34" transform="translate(53.90625 0)"/>
       <use xlink:href="#SegoeUI-30" transform="translate(107.8125 0)"/>
      </g>
     </g>
    </g>
    <g id="text_9">
     <!-- Epoch -->
     <g style="fill: #202433" transform="translate(293.791562 335.745187) scale(0.12 -0.12)">
      <defs>
       <path id="SegoeUI-45" d="M 2963 0 
L 588 0 
L 588 4481 
L 2863 4481 
L 2863 4006 
L 1113 4006 
L 1113 2516 
L 2731 2516 
L 2731 2044 
L 1113 2044 
L 1113 475 
L 2963 475 
L 2963 0 
z
" transform="scale(0.015625)"/>
       <path id="SegoeUI-70" d="M 1044 463 
L 1031 463 
L 1031 -1472 
L 519 -1472 
L 519 3200 
L 1031 3200 
L 1031 2638 
L 1044 2638 
Q 1422 3275 2150 3275 
Q 2769 3275 3116 2845 
Q 3463 2416 3463 1694 
Q 3463 891 3072 408 
Q 2681 -75 2003 -75 
Q 1381 -75 1044 463 
z
M 1031 1753 
L 1031 1306 
Q 1031 909 1289 632 
Q 1547 356 1944 356 
Q 2409 356 2673 712 
Q 2938 1069 2938 1703 
Q 2938 2238 2691 2541 
Q 2444 2844 2022 2844 
Q 1575 2844 1303 2533 
Q 1031 2222 1031 1753 
z
" transform="scale(0.015625)"/>
       <path id="SegoeUI-6f" d="M 1856 -75 
Q 1147 -75 723 373 
Q 300 822 300 1563 
Q 300 2369 740 2822 
Q 1181 3275 1931 3275 
Q 2647 3275 3048 2834 
Q 3450 2394 3450 1613 
Q 3450 847 3017 386 
Q 2584 -75 1856 -75 
z
M 1894 2844 
Q 1400 2844 1112 2508 
Q 825 2172 825 1581 
Q 825 1013 1115 684 
Q 1406 356 1894 356 
Q 2391 356 2658 678 
Q 2925 1000 2925 1594 
Q 2925 2194 2658 2519 
Q 2391 2844 1894 2844 
z
" transform="scale(0.015625)"/>
       <path id="SegoeUI-63" d="M 2700 147 
Q 2331 -75 1825 -75 
Q 1141 -75 720 370 
Q 300 816 300 1525 
Q 300 2316 753 2795 
Q 1206 3275 1963 3275 
Q 2384 3275 2706 3119 
L 2706 2594 
Q 2350 2844 1944 2844 
Q 1453 2844 1139 2492 
Q 825 2141 825 1569 
Q 825 1006 1120 681 
Q 1416 356 1913 356 
Q 2331 356 2700 634 
L 2700 147 
z
" transform="scale(0.015625)"/>
       <path id="SegoeUI-68" d="M 3175 0 
L 2663 0 
L 2663 1844 
Q 2663 2844 1919 2844 
Q 1544 2844 1287 2555 
Q 1031 2266 1031 1813 
L 1031 0 
L 519 0 
L 519 4738 
L 1031 4738 
L 1031 2669 
L 1044 2669 
Q 1413 3275 2094 3275 
Q 3175 3275 3175 1972 
L 3175 0 
z
" transform="scale(0.015625)"/>
      </defs>
      <use xlink:href="#SegoeUI-45"/>
      <use xlink:href="#SegoeUI-70" transform="translate(50.585938 0)"/>
      <use xlink:href="#SegoeUI-6f" transform="translate(109.375 0)"/>
      <use xlink:href="#SegoeUI-63" transform="translate(167.96875 0)"/>
      <use xlink:href="#SegoeUI-68" transform="translate(214.160156 0)"/>
     </g>
    </g>
   </g>
   <g id="matplotlib.axis_2">
    <g id="ytick_1">
     <g id="line2d_9">
      <path d="M 64.5175 253.456031 
L 555.5575 253.456031 
" clip-path="url(#p81c8b1932f)" style="fill: none; stroke: #e6e8f0; stroke-linecap: round"/>
     </g>
     <g id="text_10">
      <!-- $\mathdefault{10^{1}}$ -->
      <g style="fill: #6f768a" transform="translate(38.6275 257.52775) scale(0.11 -0.11)">
       <use xlink:href="#SegoeUI-31" transform="translate(0 0.895313)"/>
       <use xlink:href="#SegoeUI-30" transform="translate(53.90625 0.895313)"/>
       <use xlink:href="#SegoeUI-31" transform="translate(108.6875 35.895313) scale(0.7)"/>
      </g>
     </g>
    </g>
    <g id="ytick_2"/>
    <g id="ytick_3"/>
    <g id="ytick_4"/>
    <g id="ytick_5">
     <g id="text_11">
      <!-- $\mathdefault{2\times10^{1}}$ -->
      <g style="fill: #6f768a" transform="translate(22.9075 173.904375) scale(0.11 -0.11)">
       <defs>
        <path id="SegoeUI-d7" d="M 3544 806 
L 3250 513 
L 2188 1575 
L 1131 513 
L 838 806 
L 1900 1863 
L 838 2925 
L 1131 3219 
L 2188 2156 
L 3250 3219 
L 3544 2925 
L 2481 1863 
L 3544 806 
z
" transform="scale(0.015625)"/>
       </defs>
       <use xlink:href="#SegoeUI-32" transform="translate(0 0.895313)"/>
       <use xlink:href="#SegoeUI-d7" transform="translate(73.388672 0.895313)"/>
       <use xlink:href="#SegoeUI-31" transform="translate(161.279297 0.895313)"/>
       <use xlink:href="#SegoeUI-30" transform="translate(215.185547 0.895313)"/>
       <use xlink:href="#SegoeUI-31" transform="translate(269.966797 35.895313) scale(0.7)"/>
      </g>
     </g>
    </g>
    <g id="ytick_6">
     <g id="text_12">
      <!-- $\mathdefault{3\times10^{1}}$ -->
      <g style="fill: #6f768a" transform="translate(22.9075 124.987836) scale(0.11 -0.11)">
       <defs>
        <path id="SegoeUI-33" d="M 2978 1269 
Q 2978 966 2864 717 
Q 2750 469 2542 292 
Q 2334 116 2043 19 
Q 1753 -78 1403 -78 
Q 763 -78 384 166 
L 384 716 
Q 838 359 1422 359 
Q 1656 359 1845 418 
Q 2034 478 2170 590 
Q 2306 703 2379 862 
Q 2453 1022 2453 1222 
Q 2453 2100 1203 2100 
L 831 2100 
L 831 2534 
L 1184 2534 
Q 2291 2534 2291 3359 
Q 2291 4122 1447 4122 
Q 972 4122 556 3803 
L 556 4300 
Q 984 4556 1575 4556 
Q 1856 4556 2084 4478 
Q 2313 4400 2475 4259 
Q 2638 4119 2727 3922 
Q 2816 3725 2816 3488 
Q 2816 2603 1922 2350 
L 1922 2338 
Q 2150 2313 2344 2227 
Q 2538 2141 2678 2003 
Q 2819 1866 2898 1680 
Q 2978 1494 2978 1269 
z
" transform="scale(0.015625)"/>
       </defs>
       <use xlink:href="#SegoeUI-33" transform="translate(0 0.895313)"/>
       <use xlink:href="#SegoeUI-d7" transform="translate(73.388672 0.895313)"/>
       <use xlink:href="#SegoeUI-31" transform="translate(161.279297 0.895313)"/>
       <use xlink:href="#SegoeUI-30" transform="translate(215.185547 0.895313)"/>
       <use xlink:href="#SegoeUI-31" transform="translate(269.966797 35.895313) scale(0.7)"/>
      </g>
     </g>
    </g>
    <g id="ytick_7">
     <g id="text_13">
      <!-- $\mathdefault{4\times10^{1}}$ -->
      <g style="fill: #6f768a" transform="translate(22.9075 90.280999) scale(0.11 -0.11)">
       <use xlink:href="#SegoeUI-34" transform="translate(0 0.895313)"/>
       <use xlink:href="#SegoeUI-d7" transform="translate(73.388672 0.895313)"/>
       <use xlink:href="#SegoeUI-31" transform="translate(161.279297 0.895313)"/>
       <use xlink:href="#SegoeUI-30" transform="translate(215.185547 0.895313)"/>
       <use xlink:href="#SegoeUI-31" transform="translate(269.966797 35.895313) scale(0.7)"/>
      </g>
     </g>
    </g>
    <g id="text_14">
     <!-- Total loss, log scale -->
     <g style="fill: #202433" transform="translate(16.08375 237.251062) rotate(-90) scale(0.12 -0.12)">
      <defs>
       <path id="SegoeUI-54" d="M 3238 4006 
L 1944 4006 
L 1944 0 
L 1419 0 
L 1419 4006 
L 128 4006 
L 128 4481 
L 3238 4481 
L 3238 4006 
z
" transform="scale(0.015625)"/>
       <path id="SegoeUI-74" d="M 2003 31 
Q 1822 -69 1525 -69 
Q 684 -69 684 869 
L 684 2763 
L 134 2763 
L 134 3200 
L 684 3200 
L 684 3981 
L 1197 4147 
L 1197 3200 
L 2003 3200 
L 2003 2763 
L 1197 2763 
L 1197 959 
Q 1197 638 1306 500 
Q 1416 363 1669 363 
Q 1863 363 2003 469 
L 2003 31 
z
" transform="scale(0.015625)"/>
       <path id="SegoeUI-61" d="M 2809 0 
L 2297 0 
L 2297 500 
L 2284 500 
Q 1950 -75 1300 -75 
Q 822 -75 551 178 
Q 281 431 281 850 
Q 281 1747 1338 1894 
L 2297 2028 
Q 2297 2844 1638 2844 
Q 1059 2844 594 2450 
L 594 2975 
Q 1066 3275 1681 3275 
Q 2809 3275 2809 2081 
L 2809 0 
z
M 2297 1619 
L 1525 1513 
Q 1169 1463 987 1336 
Q 806 1209 806 888 
Q 806 653 973 504 
Q 1141 356 1419 356 
Q 1800 356 2048 623 
Q 2297 891 2297 1300 
L 2297 1619 
z
" transform="scale(0.015625)"/>
       <path id="SegoeUI-6c" d="M 1031 0 
L 519 0 
L 519 4738 
L 1031 4738 
L 1031 0 
z
" transform="scale(0.015625)"/>
       <path id="SegoeUI-20" transform="scale(0.015625)"/>
       <path id="SegoeUI-73" d="M 325 116 
L 325 666 
Q 744 356 1247 356 
Q 1922 356 1922 806 
Q 1922 934 1864 1023 
Q 1806 1113 1707 1181 
Q 1609 1250 1476 1304 
Q 1344 1359 1191 1419 
Q 978 1503 817 1589 
Q 656 1675 548 1783 
Q 441 1891 386 2028 
Q 331 2166 331 2350 
Q 331 2575 434 2748 
Q 538 2922 709 3039 
Q 881 3156 1101 3215 
Q 1322 3275 1556 3275 
Q 1972 3275 2300 3131 
L 2300 2613 
Q 1947 2844 1488 2844 
Q 1344 2844 1228 2811 
Q 1113 2778 1030 2718 
Q 947 2659 901 2576 
Q 856 2494 856 2394 
Q 856 2269 901 2184 
Q 947 2100 1034 2034 
Q 1122 1969 1247 1916 
Q 1372 1863 1531 1800 
Q 1744 1719 1912 1633 
Q 2081 1547 2200 1439 
Q 2319 1331 2383 1190 
Q 2447 1050 2447 856 
Q 2447 619 2342 444 
Q 2238 269 2063 153 
Q 1888 38 1659 -18 
Q 1431 -75 1181 -75 
Q 688 -75 325 116 
z
" transform="scale(0.015625)"/>
       <path id="SegoeUI-2c" d="M 988 713 
L 488 -825 
L 122 -825 
L 488 713 
L 988 713 
z
" transform="scale(0.015625)"/>
       <path id="SegoeUI-67" d="M 3250 256 
Q 3250 -1506 1563 -1506 
Q 969 -1506 525 -1281 
L 525 -769 
Q 1066 -1069 1556 -1069 
Q 2738 -1069 2738 188 
L 2738 538 
L 2725 538 
Q 2359 -75 1625 -75 
Q 1028 -75 664 351 
Q 300 778 300 1497 
Q 300 2313 692 2794 
Q 1084 3275 1766 3275 
Q 2413 3275 2725 2756 
L 2738 2756 
L 2738 3200 
L 3250 3200 
L 3250 256 
z
M 2738 1447 
L 2738 1919 
Q 2738 2300 2480 2572 
Q 2222 2844 1838 2844 
Q 1363 2844 1094 2498 
Q 825 2153 825 1531 
Q 825 997 1083 676 
Q 1341 356 1766 356 
Q 2197 356 2467 662 
Q 2738 969 2738 1447 
z
" transform="scale(0.015625)"/>
       <path id="SegoeUI-65" d="M 3091 1472 
L 831 1472 
Q 844 938 1119 647 
Q 1394 356 1875 356 
Q 2416 356 2869 713 
L 2869 231 
Q 2447 -75 1753 -75 
Q 1075 -75 687 361 
Q 300 797 300 1588 
Q 300 2334 723 2804 
Q 1147 3275 1775 3275 
Q 2403 3275 2747 2869 
Q 3091 2463 3091 1741 
L 3091 1472 
z
M 2566 1906 
Q 2563 2350 2352 2597 
Q 2141 2844 1766 2844 
Q 1403 2844 1150 2584 
Q 897 2325 838 1906 
L 2566 1906 
z
" transform="scale(0.015625)"/>
      </defs>
      <use xlink:href="#SegoeUI-54"/>
      <use xlink:href="#SegoeUI-6f" transform="translate(42.142578 0)"/>
      <use xlink:href="#SegoeUI-74" transform="translate(100.736328 0)"/>
      <use xlink:href="#SegoeUI-61" transform="translate(134.623047 0)"/>
      <use xlink:href="#SegoeUI-6c" transform="translate(185.501953 0)"/>
      <use xlink:href="#SegoeUI-20" transform="translate(209.720703 0)"/>
      <use xlink:href="#SegoeUI-6c" transform="translate(237.113281 0)"/>
      <use xlink:href="#SegoeUI-6f" transform="translate(261.332031 0)"/>
      <use xlink:href="#SegoeUI-73" transform="translate(319.925781 0)"/>
      <use xlink:href="#SegoeUI-73" transform="translate(362.357422 0)"/>
      <use xlink:href="#SegoeUI-2c" transform="translate(404.789062 0)"/>
      <use xlink:href="#SegoeUI-20" transform="translate(426.46875 0)"/>
      <use xlink:href="#SegoeUI-6c" transform="translate(453.861328 0)"/>
      <use xlink:href="#SegoeUI-6f" transform="translate(478.080078 0)"/>
      <use xlink:href="#SegoeUI-67" transform="translate(536.673828 0)"/>
      <use xlink:href="#SegoeUI-20" transform="translate(595.560547 0)"/>
      <use xlink:href="#SegoeUI-73" transform="translate(622.953125 0)"/>
      <use xlink:href="#SegoeUI-63" transform="translate(665.384766 0)"/>
      <use xlink:href="#SegoeUI-61" transform="translate(711.576172 0)"/>
      <use xlink:href="#SegoeUI-6c" transform="translate(762.455078 0)"/>
      <use xlink:href="#SegoeUI-65" transform="translate(786.673828 0)"/>
     </g>
    </g>
   </g>
   <g id="FillBetweenPolyCollection_1"/>
   <g id="FillBetweenPolyCollection_2"/>
   <g id="FillBetweenPolyCollection_3"/>
   <g id="FillBetweenPolyCollection_4"/>
   <g id="FillBetweenPolyCollection_5"/>
   <g id="line2d_10">
    <path d="M 86.8375 81.661091 
L 89.833473 201.053467 
L 92.829446 208.712936 
L 95.825419 210.630923 
L 98.821393 214.531492 
L 110.805285 218.145015 
L 113.801258 216.923501 
L 116.797232 220.475654 
L 119.793205 221.478723 
L 122.789178 218.153268 
L 125.785151 223.695848 
L 128.781124 222.410159 
L 131.777097 220.459459 
L 134.77307 221.824277 
L 137.769044 224.064748 
L 140.765017 228.189506 
L 143.76099 229.550584 
L 146.756963 228.427904 
L 149.752936 229.518918 
L 152.748909 230.028354 
L 155.744883 233.403831 
L 158.740856 232.57993 
L 161.736829 233.221889 
L 164.732802 234.69681 
L 167.728775 233.376227 
L 170.724748 235.882448 
L 173.720721 236.415042 
L 176.716695 235.767848 
L 179.712668 239.525204 
L 182.708641 237.808672 
L 185.704614 240.191958 
L 188.700587 241.699958 
L 191.69656 242.325427 
L 194.692534 242.211224 
L 197.688507 245.053088 
L 200.68448 244.647958 
L 203.680453 245.928995 
L 206.676426 246.487774 
L 209.672399 246.84185 
L 212.668372 247.676634 
L 215.664346 251.853462 
L 218.660319 251.092588 
L 221.656292 252.560865 
L 224.652265 254.504028 
L 227.648238 253.259998 
L 230.644211 255.011308 
L 233.640185 254.632826 
L 236.636158 257.400231 
L 239.632131 256.48536 
L 242.628104 256.256046 
L 245.624077 256.791474 
L 248.62005 257.705018 
L 251.616023 261.254042 
L 254.611997 261.947984 
L 257.60797 258.661259 
L 260.603943 262.064026 
L 263.599916 265.956066 
L 266.595889 265.912608 
L 269.591862 262.396513 
L 272.587836 267.467385 
L 275.583809 264.247375 
L 278.579782 267.724896 
L 281.575755 269.147244 
L 284.571728 269.860694 
L 287.567701 269.623844 
L 290.563674 268.496413 
L 293.559648 270.471785 
L 296.555621 269.732784 
L 299.551594 271.729655 
L 302.547567 271.480032 
L 305.54354 271.092223 
L 308.539513 269.237602 
L 311.535487 269.788113 
L 314.53146 275.253143 
L 317.527433 274.819344 
L 320.523406 276.716312 
L 323.519379 276.125493 
L 326.515352 275.202845 
L 329.511326 275.643941 
L 332.507299 274.858256 
L 335.503272 277.731874 
L 338.499245 275.31743 
L 341.495218 277.348739 
L 344.491191 275.917533 
L 347.487164 278.483671 
L 350.483138 279.280853 
L 353.479111 277.686785 
L 356.475084 278.681816 
L 359.471057 277.622327 
L 362.46703 278.09295 
L 365.463003 277.187094 
L 368.458977 278.816557 
L 371.45495 280.145115 
L 374.450923 279.844568 
L 377.446896 278.624892 
L 380.442869 278.566942 
L 383.438842 278.966972 
L 386.434815 278.893966 
L 389.430789 279.34314 
L 392.426762 281.254985 
L 395.422735 279.594477 
L 398.418708 281.809271 
L 401.414681 280.984218 
L 404.410654 282.188902 
L 407.406628 280.643206 
L 410.402601 282.549536 
L 413.398574 279.979383 
L 416.394547 280.419574 
L 419.39052 281.104182 
L 422.386493 283.601607 
L 425.382466 283.070396 
L 428.37844 283.015833 
L 431.374413 282.08241 
L 434.370386 283.871358 
L 437.366359 282.356161 
L 440.362332 284.205051 
L 443.358305 282.638681 
L 446.354279 284.308573 
L 449.350252 284.048732 
L 452.346225 284.488757 
L 455.342198 286.01873 
L 458.338171 283.266177 
L 461.334144 285.175774 
L 464.330117 284.442928 
L 467.326091 285.789703 
L 470.322064 284.891512 
L 473.318037 285.763888 
L 479.309983 284.002431 
L 482.305956 285.628717 
L 485.30193 285.182822 
L 488.297903 285.830922 
L 491.293876 285.731073 
L 494.289849 283.957945 
L 497.285822 285.313871 
L 500.281795 287.121205 
L 503.277768 285.912184 
L 506.273742 286.3154 
L 509.269715 285.876267 
L 512.265688 286.812598 
L 515.261661 286.291866 
L 518.257634 287.893885 
L 521.253607 287.200344 
L 524.249581 285.66818 
L 527.245554 287.440799 
L 530.241527 287.802878 
L 533.2375 287.809187 
L 533.2375 287.809187 
" clip-path="url(#p81c8b1932f)" style="fill: none; stroke: #1f77b4; stroke-width: 1.2; stroke-linecap: round"/>
   </g>
   <g id="line2d_11">
    <path d="M 86.8375 89.071608 
L 89.833473 203.79772 
L 92.829446 208.707807 
L 95.825419 212.605452 
L 98.821393 214.515765 
L 101.817366 215.034606 
L 104.813339 217.581362 
L 107.809312 217.540486 
L 110.805285 217.925081 
L 113.801258 219.227599 
L 116.797232 218.773125 
L 119.793205 221.473378 
L 122.789178 220.801779 
L 125.785151 221.923874 
L 128.781124 221.161705 
L 131.777097 221.751278 
L 134.77307 223.886897 
L 137.769044 224.070884 
L 140.765017 220.202676 
L 143.76099 222.063259 
L 146.756963 224.369324 
L 149.752936 224.713119 
L 152.748909 225.276246 
L 155.744883 224.541445 
L 158.740856 226.33761 
L 161.736829 224.884303 
L 164.732802 225.064892 
L 167.728775 226.852108 
L 170.724748 229.423816 
L 173.720721 228.620831 
L 176.716695 231.71995 
L 179.712668 231.989125 
L 182.708641 232.460787 
L 185.704614 234.271427 
L 188.700587 233.248126 
L 191.69656 233.839768 
L 194.692534 236.274492 
L 197.688507 235.280942 
L 200.68448 235.365004 
L 203.680453 238.1831 
L 206.676426 237.103511 
L 209.672399 236.910785 
L 212.668372 239.906525 
L 215.664346 239.520573 
L 221.656292 241.504645 
L 224.652265 239.93952 
L 227.648238 241.222116 
L 230.644211 243.785334 
L 233.640185 243.41851 
L 236.636158 244.946262 
L 239.632131 244.645602 
L 242.628104 245.454856 
L 245.624077 245.444416 
L 248.62005 247.465322 
L 251.616023 245.729302 
L 254.611997 248.888158 
L 257.60797 250.925322 
L 260.603943 249.621026 
L 263.599916 247.54632 
L 266.595889 252.058663 
L 269.591862 252.064069 
L 272.587836 251.117302 
L 275.583809 254.812173 
L 278.579782 254.511445 
L 281.575755 256.363705 
L 284.571728 255.628895 
L 287.567701 257.723842 
L 290.563674 258.326232 
L 293.559648 257.31198 
L 296.555621 259.340528 
L 299.551594 258.938249 
L 302.547567 260.486205 
L 305.54354 261.684879 
L 311.535487 262.112269 
L 314.53146 261.30032 
L 317.527433 261.701155 
L 320.523406 262.930483 
L 323.519379 265.499462 
L 326.515352 264.282832 
L 329.511326 263.778338 
L 332.507299 265.455439 
L 335.503272 265.178214 
L 338.499245 265.73997 
L 341.495218 266.822029 
L 344.491191 266.11199 
L 347.487164 266.876682 
L 350.483138 268.306496 
L 353.479111 268.018743 
L 356.475084 264.684085 
L 359.471057 268.419933 
L 362.46703 267.575199 
L 365.463003 270.04792 
L 368.458977 270.272253 
L 371.45495 269.921557 
L 374.450923 271.084205 
L 377.446896 270.620207 
L 380.442869 270.549876 
L 383.438842 271.378578 
L 389.430789 273.268379 
L 392.426762 271.123992 
L 395.422735 273.418941 
L 398.418708 271.108898 
L 401.414681 273.215875 
L 404.410654 272.819268 
L 407.406628 274.362358 
L 410.402601 275.003925 
L 413.398574 275.127677 
L 416.394547 274.752247 
L 419.39052 276.341534 
L 422.386493 274.489183 
L 425.382466 276.805999 
L 428.37844 274.190668 
L 431.374413 275.028471 
L 434.370386 276.16227 
L 437.366359 274.018822 
L 440.362332 276.321963 
L 443.358305 276.97592 
L 446.354279 276.285033 
L 449.350252 278.279151 
L 452.346225 276.680452 
L 455.342198 276.901101 
L 458.338171 277.792388 
L 461.334144 275.926456 
L 464.330117 278.783867 
L 467.326091 278.108369 
L 470.322064 277.872791 
L 473.318037 278.411949 
L 476.31401 277.785768 
L 479.309983 279.67556 
L 482.305956 280.224717 
L 485.30193 279.089891 
L 491.293876 279.620352 
L 494.289849 278.969413 
L 497.285822 279.629349 
L 500.281795 278.377484 
L 503.277768 277.40864 
L 506.273742 278.113272 
L 509.269715 278.061567 
L 512.265688 280.859662 
L 515.261661 280.257744 
L 518.257634 281.561112 
L 521.253607 279.560211 
L 524.249581 278.957205 
L 527.245554 280.165058 
L 530.241527 278.715896 
L 533.2375 281.211025 
L 533.2375 281.211025 
" clip-path="url(#p81c8b1932f)" style="fill: none; stroke: #ff7f0e; stroke-width: 1.2; stroke-linecap: round"/>
   </g>
   <g id="line2d_12">
    <path d="M 86.8375 83.788492 
L 89.833473 210.934746 
L 92.829446 215.241825 
L 95.825419 218.086751 
L 98.821393 220.077356 
L 101.817366 222.530468 
L 104.813339 224.522842 
L 110.805285 225.076601 
L 113.801258 226.139167 
L 116.797232 226.808406 
L 119.793205 227.803819 
L 122.789178 228.645508 
L 134.77307 234.285034 
L 137.769044 234.494024 
L 140.765017 234.529344 
L 143.76099 237.701442 
L 146.756963 237.338705 
L 149.752936 240.286909 
L 152.748909 238.977461 
L 155.744883 241.199748 
L 158.740856 239.968541 
L 161.736829 243.581846 
L 164.732802 241.261364 
L 167.728775 244.655472 
L 170.724748 245.344968 
L 173.720721 246.347868 
L 176.716695 243.054073 
L 179.712668 247.91458 
L 182.708641 246.222398 
L 185.704614 248.887284 
L 191.69656 251.548329 
L 194.692534 253.69543 
L 197.688507 253.319872 
L 200.68448 253.155381 
L 203.680453 257.077064 
L 206.676426 256.971411 
L 209.672399 257.2676 
L 212.668372 258.446371 
L 215.664346 253.401683 
L 218.660319 256.104035 
L 221.656292 258.251546 
L 224.652265 259.68155 
L 227.648238 260.831473 
L 230.644211 259.724984 
L 233.640185 260.108022 
L 236.636158 261.004668 
L 239.632131 262.161506 
L 242.628104 263.94083 
L 245.624077 263.829363 
L 248.62005 265.90721 
L 251.616023 266.830174 
L 257.60797 267.878505 
L 260.603943 268.415163 
L 263.599916 268.51201 
L 266.595889 268.770815 
L 269.591862 270.774906 
L 272.587836 269.463743 
L 275.583809 268.789099 
L 278.579782 271.643502 
L 281.575755 271.602583 
L 284.571728 274.104973 
L 287.567701 273.845147 
L 290.563674 274.477607 
L 293.559648 275.243904 
L 296.555621 276.588603 
L 299.551594 276.275357 
L 302.547567 274.608392 
L 305.54354 276.451946 
L 308.539513 275.541217 
L 311.535487 277.944328 
L 314.53146 279.268008 
L 317.527433 278.514373 
L 320.523406 278.346095 
L 323.519379 278.924244 
L 326.515352 278.771336 
L 329.511326 279.220775 
L 332.507299 279.809806 
L 335.503272 281.18445 
L 338.499245 281.296465 
L 341.495218 279.684133 
L 344.491191 280.064407 
L 347.487164 277.68803 
L 350.483138 281.238847 
L 353.479111 281.368628 
L 356.475084 284.110294 
L 359.471057 281.515686 
L 362.46703 278.19289 
L 365.463003 280.235703 
L 368.458977 282.075474 
L 371.45495 282.904304 
L 374.450923 283.394835 
L 377.446896 285.315387 
L 380.442869 284.530565 
L 383.438842 282.877482 
L 386.434815 283.971996 
L 389.430789 284.092611 
L 392.426762 285.337213 
L 395.422735 284.077055 
L 398.418708 286.282224 
L 401.414681 285.546982 
L 404.410654 285.995915 
L 407.406628 285.940444 
L 410.402601 285.346663 
L 413.398574 286.170001 
L 416.394547 283.755216 
L 419.39052 287.266069 
L 422.386493 286.04538 
L 425.382466 284.970556 
L 428.37844 286.295139 
L 431.374413 287.482588 
L 434.370386 287.219335 
L 437.366359 286.225706 
L 440.362332 287.54605 
L 443.358305 285.602831 
L 446.354279 288.4659 
L 449.350252 287.159307 
L 452.346225 286.74884 
L 455.342198 287.804893 
L 458.338171 288.67842 
L 461.334144 289.123532 
L 464.330117 289.799602 
L 467.326091 288.688536 
L 470.322064 290.318931 
L 473.318037 289.594413 
L 476.31401 289.478996 
L 479.309983 289.812247 
L 482.305956 288.755323 
L 485.30193 288.429904 
L 488.297903 290.437464 
L 491.293876 290.629294 
L 494.289849 289.890205 
L 497.285822 290.791226 
L 500.281795 289.304522 
L 503.277768 289.627858 
L 506.273742 290.708071 
L 509.269715 291.38054 
L 512.265688 290.806184 
L 515.261661 290.831714 
L 518.257634 291.819748 
L 521.253607 291.977806 
L 524.249581 291.933244 
L 527.245554 291.626095 
L 530.241527 291.700903 
L 533.2375 292.162909 
L 533.2375 292.162909 
" clip-path="url(#p81c8b1932f)" style="fill: none; stroke: #2ca02c; stroke-width: 1.2; stroke-linecap: round"/>
   </g>
   <g id="line2d_13">
    <path d="M 86.8375 83.654533 
L 89.833473 202.179228 
L 92.829446 209.414399 
L 95.825419 210.961117 
L 98.821393 212.334411 
L 101.817366 213.333834 
L 104.813339 215.104013 
L 107.809312 215.015563 
L 113.801258 217.658954 
L 116.797232 217.003987 
L 119.793205 218.875295 
L 122.789178 218.369595 
L 125.785151 218.189832 
L 128.781124 219.065294 
L 131.777097 220.303586 
L 134.77307 221.682704 
L 137.769044 221.704525 
L 140.765017 221.497195 
L 143.76099 221.490907 
L 146.756963 221.847072 
L 149.752936 223.110928 
L 155.744883 223.899867 
L 158.740856 223.956449 
L 161.736829 226.162418 
L 164.732802 226.324988 
L 167.728775 227.174422 
L 170.724748 225.601714 
L 173.720721 228.982855 
L 176.716695 230.146364 
L 179.712668 228.575817 
L 182.708641 232.449578 
L 185.704614 232.427432 
L 188.700587 232.056292 
L 191.69656 233.948376 
L 194.692534 233.087267 
L 197.688507 234.204068 
L 200.68448 234.34183 
L 206.676426 238.248867 
L 209.672399 234.939826 
L 212.668372 235.048701 
L 215.664346 237.300524 
L 218.660319 238.470798 
L 221.656292 240.128664 
L 224.652265 243.5458 
L 227.648238 243.153391 
L 230.644211 245.789572 
L 233.640185 245.925893 
L 236.636158 247.163275 
L 239.632131 248.753953 
L 242.628104 248.748518 
L 245.624077 250.026586 
L 248.62005 250.049942 
L 251.616023 250.209507 
L 254.611997 254.464285 
L 257.60797 253.464112 
L 260.603943 252.767663 
L 263.599916 254.522193 
L 266.595889 255.586519 
L 269.591862 257.521496 
L 272.587836 255.51446 
L 278.579782 259.279221 
L 281.575755 258.7713 
L 284.571728 260.579207 
L 287.567701 258.062246 
L 290.563674 260.009263 
L 293.559648 261.646529 
L 296.555621 259.870532 
L 299.551594 262.207234 
L 302.547567 264.97266 
L 305.54354 263.003895 
L 308.539513 262.412962 
L 314.53146 265.633302 
L 317.527433 267.556156 
L 320.523406 268.202978 
L 323.519379 266.876594 
L 326.515352 265.25 
L 329.511326 268.747333 
L 332.507299 268.170344 
L 335.503272 268.447476 
L 338.499245 269.536814 
L 341.495218 267.802066 
L 344.491191 269.928236 
L 347.487164 269.632993 
L 350.483138 270.638621 
L 353.479111 271.362557 
L 356.475084 271.102276 
L 359.471057 271.111832 
L 362.46703 269.999875 
L 365.463003 272.433837 
L 368.458977 271.52469 
L 371.45495 272.600461 
L 374.450923 270.940202 
L 377.446896 273.86958 
L 380.442869 274.185089 
L 383.438842 272.345659 
L 386.434815 272.599029 
L 389.430789 272.442688 
L 392.426762 275.33056 
L 395.422735 275.512523 
L 398.418708 274.146197 
L 401.414681 276.449544 
L 404.410654 274.779612 
L 407.406628 276.21015 
L 410.402601 275.843409 
L 413.398574 274.996316 
L 416.394547 276.601223 
L 419.39052 276.897971 
L 422.386493 276.601674 
L 425.382466 277.493566 
L 428.37844 276.654051 
L 431.374413 277.91472 
L 434.370386 276.802915 
L 437.366359 277.181582 
L 440.362332 278.456848 
L 443.358305 276.491327 
L 446.354279 275.990151 
L 449.350252 276.33654 
L 452.346225 278.866044 
L 455.342198 277.647049 
L 458.338171 277.565239 
L 461.334144 278.139423 
L 464.330117 278.226758 
L 467.326091 279.049635 
L 470.322064 278.995948 
L 473.318037 278.013244 
L 476.31401 279.006199 
L 482.305956 277.444455 
L 485.30193 278.001862 
L 488.297903 278.886521 
L 491.293876 280.219555 
L 494.289849 279.858187 
L 497.285822 279.074553 
L 500.281795 279.918996 
L 503.277768 279.581799 
L 506.273742 279.795051 
L 509.269715 281.082115 
L 512.265688 279.742552 
L 518.257634 280.897497 
L 521.253607 280.246961 
L 524.249581 282.561537 
L 527.245554 280.555812 
L 530.241527 281.15763 
L 533.2375 281.359504 
L 533.2375 281.359504 
" clip-path="url(#p81c8b1932f)" style="fill: none; stroke: #d62728; stroke-width: 1.2; stroke-linecap: round"/>
   </g>
   <g id="line2d_14">
    <path d="M 86.8375 85.208084 
L 89.833473 192.975447 
L 92.829446 197.61032 
L 95.825419 202.598185 
L 98.821393 205.022527 
L 101.817366 205.36421 
L 104.813339 207.579143 
L 107.809312 207.680875 
L 110.805285 211.11696 
L 113.801258 213.175287 
L 116.797232 213.73884 
L 119.793205 215.839504 
L 122.789178 216.555883 
L 128.781124 218.725395 
L 131.777097 220.059732 
L 134.77307 223.604003 
L 137.769044 222.314372 
L 140.765017 223.853233 
L 143.76099 222.800667 
L 146.756963 223.257073 
L 149.752936 224.577252 
L 152.748909 226.911199 
L 155.744883 226.294951 
L 158.740856 226.317294 
L 161.736829 228.802218 
L 167.728775 231.779874 
L 170.724748 230.206274 
L 173.720721 234.294261 
L 176.716695 231.391359 
L 179.712668 235.144803 
L 182.708641 233.867133 
L 185.704614 234.908709 
L 188.700587 235.3909 
L 191.69656 239.096921 
L 194.692534 239.444782 
L 197.688507 239.960978 
L 200.68448 243.097656 
L 203.680453 241.678355 
L 206.676426 246.042305 
L 209.672399 246.411088 
L 212.668372 245.253167 
L 215.664346 243.916681 
L 218.660319 248.750365 
L 221.656292 248.342368 
L 224.652265 250.15027 
L 227.648238 249.524875 
L 230.644211 250.352435 
L 233.640185 246.239196 
L 236.636158 251.826794 
L 239.632131 251.783912 
L 242.628104 253.905613 
L 245.624077 254.62634 
L 248.62005 254.171272 
L 251.616023 256.027427 
L 254.611997 256.400453 
L 257.60797 258.144471 
L 260.603943 258.211606 
L 263.599916 257.824848 
L 266.595889 257.793871 
L 269.591862 261.11553 
L 272.587836 261.640793 
L 278.579782 260.72517 
L 281.575755 260.43091 
L 284.571728 262.386503 
L 287.567701 262.241763 
L 290.563674 259.744028 
L 293.559648 263.840818 
L 296.555621 264.298289 
L 299.551594 265.688502 
L 302.547567 265.988488 
L 305.54354 266.605176 
L 311.535487 266.678733 
L 314.53146 266.390771 
L 317.527433 267.085617 
L 320.523406 269.432604 
L 323.519379 269.302859 
L 326.515352 268.391348 
L 329.511326 269.85653 
L 332.507299 270.460565 
L 335.503272 270.18171 
L 338.499245 268.4572 
L 341.495218 268.937276 
L 344.491191 270.490796 
L 347.487164 270.034051 
L 350.483138 273.104127 
L 353.479111 272.004779 
L 356.475084 271.57053 
L 359.471057 270.179479 
L 362.46703 273.422839 
L 365.463003 274.379327 
L 368.458977 272.684513 
L 371.45495 274.068863 
L 374.450923 274.055956 
L 377.446896 275.324117 
L 380.442869 274.63443 
L 383.438842 274.669966 
L 386.434815 273.159175 
L 389.430789 276.20227 
L 392.426762 273.58986 
L 395.422735 275.522415 
L 398.418708 275.664794 
L 401.414681 275.193057 
L 404.410654 274.941661 
L 407.406628 278.162825 
L 410.402601 275.371138 
L 413.398574 277.383842 
L 416.394547 276.513379 
L 419.39052 277.582861 
L 422.386493 276.281069 
L 425.382466 275.35193 
L 428.37844 277.787692 
L 431.374413 277.839172 
L 434.370386 276.859528 
L 437.366359 277.11491 
L 440.362332 276.817488 
L 443.358305 277.726985 
L 446.354279 278.955282 
L 449.350252 279.125021 
L 452.346225 278.495158 
L 455.342198 278.594503 
L 458.338171 276.326114 
L 461.334144 279.398086 
L 464.330117 280.193219 
L 467.326091 278.871563 
L 470.322064 279.508384 
L 473.318037 278.883337 
L 476.31401 278.990039 
L 479.309983 279.894957 
L 485.30193 279.333852 
L 488.297903 279.882726 
L 491.293876 279.042415 
L 494.289849 280.235735 
L 497.285822 281.690571 
L 500.281795 279.737841 
L 503.277768 281.485359 
L 506.273742 278.018243 
L 509.269715 278.793148 
L 512.265688 281.690748 
L 515.261661 280.255692 
L 518.257634 281.570395 
L 521.253607 279.418848 
L 527.245554 281.44711 
L 530.241527 280.364792 
L 533.2375 281.749761 
L 533.2375 281.749761 
" clip-path="url(#p81c8b1932f)" style="fill: none; stroke: #9467bd; stroke-width: 1.2; stroke-linecap: round"/>
   </g>
   <g id="line2d_15"/>
   <g id="line2d_16"/>
   <g id="line2d_17"/>
   <g id="line2d_18"/>
   <g id="line2d_19"/>
   <g id="patch_3">
    <path d="M 64.5175 302.688 
L 64.5175 71.136 
" style="fill: none; stroke: #d7dbe7; stroke-width: 1.25; stroke-linejoin: miter; stroke-linecap: square"/>
   </g>
   <g id="patch_4">
    <path d="M 555.5575 302.688 
L 555.5575 71.136 
" style="fill: none; stroke: #d7dbe7; stroke-width: 1.25; stroke-linejoin: miter; stroke-linecap: square"/>
   </g>
   <g id="patch_5">
    <path d="M 64.5175 302.688 
L 555.5575 302.688 
" style="fill: none; stroke: #d7dbe7; stroke-width: 1.25; stroke-linejoin: miter; stroke-linecap: square"/>
   </g>
   <g id="patch_6">
    <path d="M 64.5175 71.136 
L 555.5575 71.136 
" style="fill: none; stroke: #d7dbe7; stroke-width: 1.25; stroke-linejoin: miter; stroke-linecap: square"/>
   </g>
   <g id="legend_1">
    <g id="text_15">
     <!-- Cluster -->
     <g style="fill: #262626" transform="translate(291.715 48.24039) scale(0.12 -0.12)">
      <defs>
       <path id="SegoeUI-43" d="M 3638 188 
Q 3141 -75 2400 -75 
Q 1444 -75 869 540 
Q 294 1156 294 2156 
Q 294 3231 941 3893 
Q 1588 4556 2581 4556 
Q 3219 4556 3638 4372 
L 3638 3813 
Q 3156 4081 2575 4081 
Q 1803 4081 1323 3565 
Q 844 3050 844 2188 
Q 844 1369 1292 883 
Q 1741 397 2469 397 
Q 3144 397 3638 697 
L 3638 188 
z
" transform="scale(0.015625)"/>
       <path id="SegoeUI-75" d="M 3106 0 
L 2594 0 
L 2594 506 
L 2581 506 
Q 2263 -75 1594 -75 
Q 450 -75 450 1288 
L 450 3200 
L 959 3200 
L 959 1369 
Q 959 356 1734 356 
Q 2109 356 2351 632 
Q 2594 909 2594 1356 
L 2594 3200 
L 3106 3200 
L 3106 0 
z
" transform="scale(0.015625)"/>
       <path id="SegoeUI-72" d="M 2188 2681 
Q 2053 2784 1800 2784 
Q 1472 2784 1251 2475 
Q 1031 2166 1031 1631 
L 1031 0 
L 519 0 
L 519 3200 
L 1031 3200 
L 1031 2541 
L 1044 2541 
Q 1153 2878 1378 3067 
Q 1603 3256 1881 3256 
Q 2081 3256 2188 3213 
L 2188 2681 
z
" transform="scale(0.015625)"/>
      </defs>
      <use xlink:href="#SegoeUI-43"/>
      <use xlink:href="#SegoeUI-6c" transform="translate(61.914062 0)"/>
      <use xlink:href="#SegoeUI-75" transform="translate(86.132812 0)"/>
      <use xlink:href="#SegoeUI-73" transform="translate(142.724609 0)"/>
      <use xlink:href="#SegoeUI-74" transform="translate(185.15625 0)"/>
      <use xlink:href="#SegoeUI-65" transform="translate(218.292969 0)"/>
      <use xlink:href="#SegoeUI-72" transform="translate(270.587891 0)"/>
     </g>
    </g>
    <g id="line2d_20">
     <path d="M 174.213281 60.793827 
L 185.213281 60.793827 
L 196.213281 60.793827 
" style="fill: none; stroke: #1f77b4; stroke-width: 1.2; stroke-linecap: round"/>
    </g>
    <g id="text_16">
     <!-- 0 -->
     <g style="fill: #262626" transform="translate(205.013281 64.643827) scale(0.11 -0.11)">
      <use xlink:href="#SegoeUI-30"/>
     </g>
    </g>
    <g id="line2d_21">
     <path d="M 232.942969 60.793827 
L 243.942969 60.793827 
L 254.942969 60.793827 
" style="fill: none; stroke: #ff7f0e; stroke-width: 1.2; stroke-linecap: round"/>
    </g>
    <g id="text_17">
     <!-- 1 -->
     <g style="fill: #262626" transform="translate(263.742969 64.643827) scale(0.11 -0.11)">
      <use xlink:href="#SegoeUI-31"/>
     </g>
    </g>
    <g id="line2d_22">
     <path d="M 291.672656 60.793827 
L 302.672656 60.793827 
L 313.672656 60.793827 
" style="fill: none; stroke: #2ca02c; stroke-width: 1.2; stroke-linecap: round"/>
    </g>
    <g id="text_18">
     <!-- 2 -->
     <g style="fill: #262626" transform="translate(322.472656 64.643827) scale(0.11 -0.11)">
      <use xlink:href="#SegoeUI-32"/>
     </g>
    </g>
    <g id="line2d_23">
     <path d="M 350.402344 60.793827 
L 361.402344 60.793827 
L 372.402344 60.793827 
" style="fill: none; stroke: #d62728; stroke-width: 1.2; stroke-linecap: round"/>
    </g>
    <g id="text_19">
     <!-- 3 -->
     <g style="fill: #262626" transform="translate(381.202344 64.643827) scale(0.11 -0.11)">
      <use xlink:href="#SegoeUI-33"/>
     </g>
    </g>
    <g id="line2d_24">
     <path d="M 409.132031 60.793827 
L 420.132031 60.793827 
L 431.132031 60.793827 
" style="fill: none; stroke: #9467bd; stroke-width: 1.2; stroke-linecap: round"/>
    </g>
    <g id="text_20">
     <!-- 4 -->
     <g style="fill: #262626" transform="translate(439.932031 64.643827) scale(0.11 -0.11)">
      <use xlink:href="#SegoeUI-34"/>
     </g>
    </g>
   </g>
  </g>
  <g id="text_21">
   <!-- Physics-informed training convergence -->
   <g style="fill: #202433" transform="translate(23.3335 18.480469) scale(0.15 -0.15)">
    <defs>
     <path id="SegoeUI-Bold-50" d="M 1522 1544 
L 1522 0 
L 513 0 
L 513 4481 
L 2094 4481 
Q 3788 4481 3788 3053 
Q 3788 2378 3302 1961 
Q 2816 1544 2003 1544 
L 1522 1544 
z
M 1522 3706 
L 1522 2309 
L 1919 2309 
Q 2725 2309 2725 3016 
Q 2725 3706 1919 3706 
L 1522 3706 
z
" transform="scale(0.015625)"/>
     <path id="SegoeUI-Bold-68" d="M 3488 0 
L 2503 0 
L 2503 1819 
Q 2503 2522 1991 2522 
Q 1728 2522 1565 2325 
Q 1403 2128 1403 1825 
L 1403 0 
L 416 0 
L 416 4738 
L 1403 4738 
L 1403 2725 
L 1416 2725 
Q 1778 3278 2400 3278 
Q 3488 3278 3488 1966 
L 3488 0 
z
" transform="scale(0.015625)"/>
     <path id="SegoeUI-Bold-79" d="M 3463 3200 
L 2163 -256 
Q 1694 -1503 750 -1503 
Q 391 -1503 159 -1422 
L 159 -634 
Q 356 -750 588 -750 
Q 969 -750 1119 -391 
L 1288 6 
L -13 3200 
L 1081 3200 
L 1678 1253 
Q 1734 1072 1766 825 
L 1778 825 
Q 1806 1006 1881 1247 
L 2484 3200 
L 3463 3200 
z
" transform="scale(0.015625)"/>
     <path id="SegoeUI-Bold-73" d="M 206 84 
L 206 884 
Q 450 738 692 666 
Q 934 594 1150 594 
Q 1413 594 1564 666 
Q 1716 738 1716 884 
Q 1716 978 1647 1040 
Q 1578 1103 1470 1150 
Q 1363 1197 1234 1234 
Q 1106 1272 988 1319 
Q 797 1391 651 1473 
Q 506 1556 407 1665 
Q 309 1775 257 1919 
Q 206 2063 206 2259 
Q 206 2528 323 2722 
Q 441 2916 636 3039 
Q 831 3163 1082 3220 
Q 1334 3278 1606 3278 
Q 1819 3278 2037 3245 
Q 2256 3213 2469 3150 
L 2469 2388 
Q 2281 2497 2067 2551 
Q 1853 2606 1647 2606 
Q 1550 2606 1464 2589 
Q 1378 2572 1312 2539 
Q 1247 2506 1209 2454 
Q 1172 2403 1172 2338 
Q 1172 2250 1228 2187 
Q 1284 2125 1375 2079 
Q 1466 2034 1577 1998 
Q 1688 1963 1797 1925 
Q 1994 1856 2153 1775 
Q 2313 1694 2427 1584 
Q 2541 1475 2602 1328 
Q 2663 1181 2663 978 
Q 2663 694 2539 492 
Q 2416 291 2211 164 
Q 2006 38 1739 -20 
Q 1472 -78 1184 -78 
Q 656 -78 206 84 
z
" transform="scale(0.015625)"/>
     <path id="SegoeUI-Bold-69" d="M 916 3706 
Q 666 3706 506 3854 
Q 347 4003 347 4219 
Q 347 4441 506 4581 
Q 666 4722 916 4722 
Q 1169 4722 1326 4581 
Q 1484 4441 1484 4219 
Q 1484 3994 1326 3850 
Q 1169 3706 916 3706 
z
M 1403 0 
L 416 0 
L 416 3200 
L 1403 3200 
L 1403 0 
z
" transform="scale(0.015625)"/>
     <path id="SegoeUI-Bold-63" d="M 2841 116 
Q 2506 -78 1875 -78 
Q 1138 -78 681 369 
Q 225 816 225 1522 
Q 225 2338 714 2808 
Q 1203 3278 2022 3278 
Q 2588 3278 2841 3128 
L 2841 2291 
Q 2531 2522 2150 2522 
Q 1725 2522 1476 2273 
Q 1228 2025 1228 1588 
Q 1228 1163 1465 920 
Q 1703 678 2119 678 
Q 2488 678 2841 909 
L 2841 116 
z
" transform="scale(0.015625)"/>
     <path id="SegoeUI-Bold-2d" d="M 2156 1363 
L 447 1363 
L 447 2053 
L 2156 2053 
L 2156 1363 
z
" transform="scale(0.015625)"/>
     <path id="SegoeUI-Bold-6e" d="M 3506 0 
L 2522 0 
L 2522 1778 
Q 2522 2522 1991 2522 
Q 1734 2522 1568 2325 
Q 1403 2128 1403 1825 
L 1403 0 
L 416 0 
L 416 3200 
L 1403 3200 
L 1403 2694 
L 1416 2694 
Q 1769 3278 2444 3278 
Q 3506 3278 3506 1959 
L 3506 0 
z
" transform="scale(0.015625)"/>
     <path id="SegoeUI-Bold-66" d="M 2503 3981 
Q 2313 4056 2138 4056 
Q 1663 4056 1663 3541 
L 1663 3200 
L 2394 3200 
L 2394 2472 
L 1663 2472 
L 1663 0 
L 678 0 
L 678 2472 
L 141 2472 
L 141 3200 
L 678 3200 
L 678 3597 
Q 678 4144 1034 4478 
Q 1391 4813 2003 4813 
Q 2303 4813 2503 4750 
L 2503 3981 
z
" transform="scale(0.015625)"/>
     <path id="SegoeUI-Bold-6f" d="M 1941 -78 
Q 1141 -78 683 370 
Q 225 819 225 1588 
Q 225 2381 700 2829 
Q 1175 3278 1984 3278 
Q 2781 3278 3234 2829 
Q 3688 2381 3688 1644 
Q 3688 847 3220 384 
Q 2753 -78 1941 -78 
z
M 1966 2522 
Q 1616 2522 1422 2281 
Q 1228 2041 1228 1600 
Q 1228 678 1972 678 
Q 2681 678 2681 1625 
Q 2681 2522 1966 2522 
z
" transform="scale(0.015625)"/>
     <path id="SegoeUI-Bold-72" d="M 2503 2309 
Q 2325 2406 2088 2406 
Q 1766 2406 1584 2170 
Q 1403 1934 1403 1528 
L 1403 0 
L 416 0 
L 416 3200 
L 1403 3200 
L 1403 2606 
L 1416 2606 
Q 1650 3256 2259 3256 
Q 2416 3256 2503 3219 
L 2503 2309 
z
" transform="scale(0.015625)"/>
     <path id="SegoeUI-Bold-6d" d="M 5497 0 
L 4513 0 
L 4513 1825 
Q 4513 2522 4000 2522 
Q 3756 2522 3603 2312 
Q 3450 2103 3450 1791 
L 3450 0 
L 2463 0 
L 2463 1844 
Q 2463 2522 1959 2522 
Q 1706 2522 1554 2322 
Q 1403 2122 1403 1778 
L 1403 0 
L 416 0 
L 416 3200 
L 1403 3200 
L 1403 2700 
L 1416 2700 
Q 1569 2956 1845 3117 
Q 2122 3278 2450 3278 
Q 3128 3278 3378 2681 
Q 3744 3278 4453 3278 
Q 5497 3278 5497 1991 
L 5497 0 
z
" transform="scale(0.015625)"/>
     <path id="SegoeUI-Bold-65" d="M 3291 1319 
L 1203 1319 
Q 1253 622 2081 622 
Q 2609 622 3009 872 
L 3009 159 
Q 2566 -78 1856 -78 
Q 1081 -78 653 351 
Q 225 781 225 1550 
Q 225 2347 687 2812 
Q 1150 3278 1825 3278 
Q 2525 3278 2908 2862 
Q 3291 2447 3291 1734 
L 3291 1319 
z
M 2375 1925 
Q 2375 2613 1819 2613 
Q 1581 2613 1407 2416 
Q 1234 2219 1197 1925 
L 2375 1925 
z
" transform="scale(0.015625)"/>
     <path id="SegoeUI-Bold-64" d="M 3547 0 
L 2559 0 
L 2559 441 
L 2547 441 
Q 2209 -78 1556 -78 
Q 956 -78 590 345 
Q 225 769 225 1528 
Q 225 2322 628 2800 
Q 1031 3278 1684 3278 
Q 2303 3278 2547 2834 
L 2559 2834 
L 2559 4738 
L 3547 4738 
L 3547 0 
z
M 2578 1556 
L 2578 1797 
Q 2578 2109 2397 2315 
Q 2216 2522 1925 2522 
Q 1597 2522 1412 2264 
Q 1228 2006 1228 1556 
Q 1228 1134 1406 906 
Q 1584 678 1900 678 
Q 2200 678 2389 918 
Q 2578 1159 2578 1556 
z
" transform="scale(0.015625)"/>
     <path id="SegoeUI-Bold-20" transform="scale(0.015625)"/>
     <path id="SegoeUI-Bold-74" d="M 2350 38 
Q 2131 -78 1691 -78 
Q 647 -78 647 1006 
L 647 2472 
L 128 2472 
L 128 3200 
L 647 3200 
L 647 3891 
L 1631 4172 
L 1631 3200 
L 2350 3200 
L 2350 2472 
L 1631 2472 
L 1631 1178 
Q 1631 678 2028 678 
Q 2184 678 2350 769 
L 2350 38 
z
" transform="scale(0.015625)"/>
     <path id="SegoeUI-Bold-61" d="M 3078 0 
L 2144 0 
L 2144 459 
L 2131 459 
Q 1809 -78 1178 -78 
Q 713 -78 445 186 
Q 178 450 178 891 
Q 178 1822 1281 1966 
L 2150 2081 
Q 2150 2606 1581 2606 
Q 1009 2606 494 2266 
L 494 3009 
Q 700 3116 1058 3197 
Q 1416 3278 1709 3278 
Q 3078 3278 3078 1913 
L 3078 0 
z
M 2150 1300 
L 2150 1516 
L 1569 1441 
Q 1088 1378 1088 1006 
Q 1088 838 1205 730 
Q 1322 622 1522 622 
Q 1800 622 1975 814 
Q 2150 1006 2150 1300 
z
" transform="scale(0.015625)"/>
     <path id="SegoeUI-Bold-67" d="M 3553 366 
Q 3553 -525 3037 -1014 
Q 2522 -1503 1544 -1503 
Q 897 -1503 519 -1319 
L 519 -488 
Q 1013 -775 1516 -775 
Q 2016 -775 2291 -511 
Q 2566 -247 2566 206 
L 2566 459 
L 2553 459 
Q 2216 -78 1556 -78 
Q 944 -78 584 353 
Q 225 784 225 1509 
Q 225 2322 625 2800 
Q 1025 3278 1678 3278 
Q 2263 3278 2553 2828 
L 2566 2828 
L 2566 3200 
L 3553 3200 
L 3553 366 
z
M 2578 1538 
L 2578 1791 
Q 2578 2094 2398 2308 
Q 2219 2522 1931 2522 
Q 1603 2522 1415 2265 
Q 1228 2009 1228 1544 
Q 1228 1144 1406 911 
Q 1584 678 1894 678 
Q 2200 678 2389 914 
Q 2578 1150 2578 1538 
z
" transform="scale(0.015625)"/>
     <path id="SegoeUI-Bold-76" d="M 3463 3200 
L 2272 0 
L 1147 0 
L 13 3200 
L 1069 3200 
L 1625 1228 
Q 1719 894 1734 659 
L 1747 659 
Q 1769 881 1863 1209 
L 2431 3200 
L 3463 3200 
z
" transform="scale(0.015625)"/>
    </defs>
    <use xlink:href="#SegoeUI-Bold-50"/>
    <use xlink:href="#SegoeUI-Bold-68" transform="translate(61.425781 0)"/>
    <use xlink:href="#SegoeUI-Bold-79" transform="translate(121.630859 0)"/>
    <use xlink:href="#SegoeUI-Bold-73" transform="translate(175.439453 0)"/>
    <use xlink:href="#SegoeUI-Bold-69" transform="translate(219.433594 0)"/>
    <use xlink:href="#SegoeUI-Bold-63" transform="translate(247.851562 0)"/>
    <use xlink:href="#SegoeUI-Bold-73" transform="translate(295.849609 0)"/>
    <use xlink:href="#SegoeUI-Bold-2d" transform="translate(339.84375 0)"/>
    <use xlink:href="#SegoeUI-Bold-69" transform="translate(380.273438 0)"/>
    <use xlink:href="#SegoeUI-Bold-6e" transform="translate(408.691406 0)"/>
    <use xlink:href="#SegoeUI-Bold-66" transform="translate(469.189453 0)"/>
    <use xlink:href="#SegoeUI-Bold-6f" transform="translate(507.519531 0)"/>
    <use xlink:href="#SegoeUI-Bold-72" transform="translate(568.652344 0)"/>
    <use xlink:href="#SegoeUI-Bold-6d" transform="translate(608.697266 0)"/>
    <use xlink:href="#SegoeUI-Bold-65" transform="translate(700.298828 0)"/>
    <use xlink:href="#SegoeUI-Bold-64" transform="translate(754.400391 0)"/>
    <use xlink:href="#SegoeUI-Bold-20" transform="translate(816.314453 0)"/>
    <use xlink:href="#SegoeUI-Bold-74" transform="translate(843.902344 0)"/>
    <use xlink:href="#SegoeUI-Bold-72" transform="translate(882.818359 0)"/>
    <use xlink:href="#SegoeUI-Bold-61" transform="translate(922.613281 0)"/>
    <use xlink:href="#SegoeUI-Bold-69" transform="translate(976.421875 0)"/>
    <use xlink:href="#SegoeUI-Bold-6e" transform="translate(1004.839844 0)"/>
    <use xlink:href="#SegoeUI-Bold-69" transform="translate(1065.337891 0)"/>
    <use xlink:href="#SegoeUI-Bold-6e" transform="translate(1093.755859 0)"/>
    <use xlink:href="#SegoeUI-Bold-67" transform="translate(1154.253906 0)"/>
    <use xlink:href="#SegoeUI-Bold-20" transform="translate(1216.167969 0)"/>
    <use xlink:href="#SegoeUI-Bold-63" transform="translate(1243.755859 0)"/>
    <use xlink:href="#SegoeUI-Bold-6f" transform="translate(1291.753906 0)"/>
    <use xlink:href="#SegoeUI-Bold-6e" transform="translate(1352.886719 0)"/>
    <use xlink:href="#SegoeUI-Bold-76" transform="translate(1413.384766 0)"/>
    <use xlink:href="#SegoeUI-Bold-65" transform="translate(1466.583984 0)"/>
    <use xlink:href="#SegoeUI-Bold-72" transform="translate(1520.685547 0)"/>
    <use xlink:href="#SegoeUI-Bold-67" transform="translate(1560.105469 0)"/>
    <use xlink:href="#SegoeUI-Bold-65" transform="translate(1622.019531 0)"/>
    <use xlink:href="#SegoeUI-Bold-6e" transform="translate(1676.121094 0)"/>
    <use xlink:href="#SegoeUI-Bold-63" transform="translate(1736.619141 0)"/>
    <use xlink:href="#SegoeUI-Bold-65" transform="translate(1784.617188 0)"/>
   </g>
  </g>
  <g id="text_22">
   <!-- Total loss by cluster/fold for the Ara-style epsilon-core model. -->
   <g style="fill: #6f768a" transform="translate(23.3335 28.157906) scale(0.095 -0.095)">
    <defs>
     <path id="SegoeUI-62" d="M 1044 463 
L 1031 463 
L 1031 0 
L 519 0 
L 519 4738 
L 1031 4738 
L 1031 2638 
L 1044 2638 
Q 1422 3275 2150 3275 
Q 2766 3275 3114 2845 
Q 3463 2416 3463 1694 
Q 3463 891 3072 408 
Q 2681 -75 2003 -75 
Q 1369 -75 1044 463 
z
M 1031 1753 
L 1031 1306 
Q 1031 909 1289 632 
Q 1547 356 1944 356 
Q 2409 356 2673 712 
Q 2938 1069 2938 1703 
Q 2938 2238 2691 2541 
Q 2444 2844 2022 2844 
Q 1575 2844 1303 2533 
Q 1031 2222 1031 1753 
z
" transform="scale(0.015625)"/>
     <path id="SegoeUI-79" d="M 3066 3200 
L 1594 -513 
Q 1200 -1506 488 -1506 
Q 288 -1506 153 -1466 
L 153 -1006 
Q 319 -1063 456 -1063 
Q 844 -1063 1038 -600 
L 1294 6 
L 44 3200 
L 613 3200 
L 1478 738 
Q 1494 691 1544 494 
L 1563 494 
Q 1578 569 1625 731 
L 2534 3200 
L 3066 3200 
z
" transform="scale(0.015625)"/>
     <path id="SegoeUI-2f" d="M 2541 4481 
L 391 -744 
L -88 -744 
L 2056 4481 
L 2541 4481 
z
" transform="scale(0.015625)"/>
     <path id="SegoeUI-66" d="M 2100 4288 
Q 1950 4372 1759 4372 
Q 1222 4372 1222 3694 
L 1222 3200 
L 1972 3200 
L 1972 2763 
L 1222 2763 
L 1222 0 
L 713 0 
L 713 2763 
L 166 2763 
L 166 3200 
L 713 3200 
L 713 3719 
Q 713 4222 1003 4514 
Q 1294 4806 1728 4806 
Q 1963 4806 2100 4750 
L 2100 4288 
z
" transform="scale(0.015625)"/>
     <path id="SegoeUI-64" d="M 3250 0 
L 2738 0 
L 2738 544 
L 2725 544 
Q 2369 -75 1625 -75 
Q 1022 -75 661 354 
Q 300 784 300 1525 
Q 300 2319 700 2797 
Q 1100 3275 1766 3275 
Q 2425 3275 2725 2756 
L 2738 2756 
L 2738 4738 
L 3250 4738 
L 3250 0 
z
M 2738 1447 
L 2738 1919 
Q 2738 2306 2481 2575 
Q 2225 2844 1831 2844 
Q 1363 2844 1094 2500 
Q 825 2156 825 1550 
Q 825 997 1083 676 
Q 1341 356 1775 356 
Q 2203 356 2470 665 
Q 2738 975 2738 1447 
z
" transform="scale(0.015625)"/>
     <path id="SegoeUI-41" d="M 4056 0 
L 3475 0 
L 3000 1256 
L 1100 1256 
L 653 0 
L 69 0 
L 1788 4481 
L 2331 4481 
L 4056 0 
z
M 2828 1728 
L 2125 3638 
Q 2091 3731 2056 3938 
L 2044 3938 
Q 2013 3747 1972 3638 
L 1275 1728 
L 2828 1728 
z
" transform="scale(0.015625)"/>
     <path id="SegoeUI-2d" d="M 2156 1581 
L 450 1581 
L 450 1984 
L 2156 1984 
L 2156 1581 
z
" transform="scale(0.015625)"/>
     <path id="SegoeUI-69" d="M 781 4013 
Q 644 4013 547 4106 
Q 450 4200 450 4344 
Q 450 4488 547 4583 
Q 644 4678 781 4678 
Q 922 4678 1020 4583 
Q 1119 4488 1119 4344 
Q 1119 4206 1020 4109 
Q 922 4013 781 4013 
z
M 1031 0 
L 519 0 
L 519 3200 
L 1031 3200 
L 1031 0 
z
" transform="scale(0.015625)"/>
     <path id="SegoeUI-6e" d="M 3175 0 
L 2663 0 
L 2663 1825 
Q 2663 2844 1919 2844 
Q 1534 2844 1282 2555 
Q 1031 2266 1031 1825 
L 1031 0 
L 519 0 
L 519 3200 
L 1031 3200 
L 1031 2669 
L 1044 2669 
Q 1406 3275 2094 3275 
Q 2619 3275 2897 2936 
Q 3175 2597 3175 1956 
L 3175 0 
z
" transform="scale(0.015625)"/>
     <path id="SegoeUI-6d" d="M 5063 0 
L 4550 0 
L 4550 1838 
Q 4550 2369 4386 2606 
Q 4222 2844 3834 2844 
Q 3506 2844 3276 2544 
Q 3047 2244 3047 1825 
L 3047 0 
L 2534 0 
L 2534 1900 
Q 2534 2844 1806 2844 
Q 1469 2844 1250 2561 
Q 1031 2278 1031 1825 
L 1031 0 
L 519 0 
L 519 3200 
L 1031 3200 
L 1031 2694 
L 1044 2694 
Q 1384 3275 2038 3275 
Q 2366 3275 2609 3092 
Q 2853 2909 2944 2613 
Q 3300 3275 4006 3275 
Q 5063 3275 5063 1972 
L 5063 0 
z
" transform="scale(0.015625)"/>
     <path id="SegoeUI-2e" d="M 697 -69 
Q 553 -69 451 34 
Q 350 138 350 281 
Q 350 425 451 529 
Q 553 634 697 634 
Q 844 634 947 529 
Q 1050 425 1050 281 
Q 1050 138 947 34 
Q 844 -69 697 -69 
z
" transform="scale(0.015625)"/>
    </defs>
    <use xlink:href="#SegoeUI-54"/>
    <use xlink:href="#SegoeUI-6f" transform="translate(42.142578 0)"/>
    <use xlink:href="#SegoeUI-74" transform="translate(100.736328 0)"/>
    <use xlink:href="#SegoeUI-61" transform="translate(134.623047 0)"/>
    <use xlink:href="#SegoeUI-6c" transform="translate(185.501953 0)"/>
    <use xlink:href="#SegoeUI-20" transform="translate(209.720703 0)"/>
    <use xlink:href="#SegoeUI-6c" transform="translate(237.113281 0)"/>
    <use xlink:href="#SegoeUI-6f" transform="translate(261.332031 0)"/>
    <use xlink:href="#SegoeUI-73" transform="translate(319.925781 0)"/>
    <use xlink:href="#SegoeUI-73" transform="translate(362.357422 0)"/>
    <use xlink:href="#SegoeUI-20" transform="translate(404.789062 0)"/>
    <use xlink:href="#SegoeUI-62" transform="translate(432.181641 0)"/>
    <use xlink:href="#SegoeUI-79" transform="translate(490.970703 0)"/>
    <use xlink:href="#SegoeUI-20" transform="translate(539.359375 0)"/>
    <use xlink:href="#SegoeUI-63" transform="translate(566.751953 0)"/>
    <use xlink:href="#SegoeUI-6c" transform="translate(612.943359 0)"/>
    <use xlink:href="#SegoeUI-75" transform="translate(637.162109 0)"/>
    <use xlink:href="#SegoeUI-73" transform="translate(693.753906 0)"/>
    <use xlink:href="#SegoeUI-74" transform="translate(736.185547 0)"/>
    <use xlink:href="#SegoeUI-65" transform="translate(769.322266 0)"/>
    <use xlink:href="#SegoeUI-72" transform="translate(821.617188 0)"/>
    <use xlink:href="#SegoeUI-2f" transform="translate(856.382812 0)"/>
    <use xlink:href="#SegoeUI-66" transform="translate(895.347656 0)"/>
    <use xlink:href="#SegoeUI-6f" transform="translate(926.646484 0)"/>
    <use xlink:href="#SegoeUI-6c" transform="translate(985.240234 0)"/>
    <use xlink:href="#SegoeUI-64" transform="translate(1009.458984 0)"/>
    <use xlink:href="#SegoeUI-20" transform="translate(1068.345703 0)"/>
    <use xlink:href="#SegoeUI-66" transform="translate(1095.738281 0)"/>
    <use xlink:href="#SegoeUI-6f" transform="translate(1127.037109 0)"/>
    <use xlink:href="#SegoeUI-72" transform="translate(1185.630859 0)"/>
    <use xlink:href="#SegoeUI-20" transform="translate(1220.396484 0)"/>
    <use xlink:href="#SegoeUI-74" transform="translate(1247.789062 0)"/>
    <use xlink:href="#SegoeUI-68" transform="translate(1281.675781 0)"/>
    <use xlink:href="#SegoeUI-65" transform="translate(1338.267578 0)"/>
    <use xlink:href="#SegoeUI-20" transform="translate(1390.5625 0)"/>
    <use xlink:href="#SegoeUI-41" transform="translate(1417.955078 0)"/>
    <use xlink:href="#SegoeUI-72" transform="translate(1482.457031 0)"/>
    <use xlink:href="#SegoeUI-61" transform="translate(1517.222656 0)"/>
    <use xlink:href="#SegoeUI-2d" transform="translate(1568.101562 0)"/>
    <use xlink:href="#SegoeUI-73" transform="translate(1608.091797 0)"/>
    <use xlink:href="#SegoeUI-74" transform="translate(1650.523438 0)"/>
    <use xlink:href="#SegoeUI-79" transform="translate(1684.410156 0)"/>
    <use xlink:href="#SegoeUI-6c" transform="translate(1732.798828 0)"/>
    <use xlink:href="#SegoeUI-65" transform="translate(1757.017578 0)"/>
    <use xlink:href="#SegoeUI-20" transform="translate(1809.3125 0)"/>
    <use xlink:href="#SegoeUI-65" transform="translate(1836.705078 0)"/>
    <use xlink:href="#SegoeUI-70" transform="translate(1889 0)"/>
    <use xlink:href="#SegoeUI-73" transform="translate(1947.789062 0)"/>
    <use xlink:href="#SegoeUI-69" transform="translate(1990.220703 0)"/>
    <use xlink:href="#SegoeUI-6c" transform="translate(2014.439453 0)"/>
    <use xlink:href="#SegoeUI-6f" transform="translate(2038.658203 0)"/>
    <use xlink:href="#SegoeUI-6e" transform="translate(2097.251953 0)"/>
    <use xlink:href="#SegoeUI-2d" transform="translate(2153.84375 0)"/>
    <use xlink:href="#SegoeUI-63" transform="translate(2193.833984 0)"/>
    <use xlink:href="#SegoeUI-6f" transform="translate(2240.025391 0)"/>
    <use xlink:href="#SegoeUI-72" transform="translate(2298.619141 0)"/>
    <use xlink:href="#SegoeUI-65" transform="translate(2332.009766 0)"/>
    <use xlink:href="#SegoeUI-20" transform="translate(2384.304688 0)"/>
    <use xlink:href="#SegoeUI-6d" transform="translate(2411.697266 0)"/>
    <use xlink:href="#SegoeUI-6f" transform="translate(2497.830078 0)"/>
    <use xlink:href="#SegoeUI-64" transform="translate(2556.423828 0)"/>
    <use xlink:href="#SegoeUI-65" transform="translate(2615.310547 0)"/>
    <use xlink:href="#SegoeUI-6c" transform="translate(2667.605469 0)"/>
    <use xlink:href="#SegoeUI-2e" transform="translate(2691.824219 0)"/>
   </g>
  </g>
 </g>
 <defs>
  <clipPath id="p81c8b1932f">
   <rect x="64.5175" y="71.136" width="491.04" height="231.552"/>
  </clipPath>
 </defs>
</svg>
