<?xml version="1.0" encoding="utf-8" standalone="no"?>
<!DOCTYPE svg PUBLIC "-//W3C//DTD SVG 1.1//EN"
  "http://www.w3.org/Graphics/SVG/1.1/DTD/svg11.dtd">
<svg xmlns:xlink="http://www.w3.org/1999/xlink" width="760.957344pt" height="321.081187pt" viewBox="0 0 760.957344 321.081187" xmlns="http://www.w3.org/2000/svg" version="1.1">
 <metadata>
  <rdf:RDF xmlns:dc="http://purl.org/dc/elements/1.1/" xmlns:cc="http://creativecommons.org/ns#" xmlns:rdf="http://www.w3.org/1999/02/22-rdf-syntax-ns#">
   <cc:Work>
    <dc:type rdf:resource="http://purl.org/dc/dcmitype/StillImage"/>
    <dc:date>2026-06-28T15:08:11.409670</dc:date>
    <dc:format>image/svg+xml</dc:format>
    <dc:creator>
     <cc:Agent>
      <dc:title>Matplotlib v3.10.8, https://matplotlib.org/</dc:title>
     </cc:Agent>
    </dc:creator>
   </cc:Work>
  </rdf:RDF>
 </metadata>
 <defs>
  <style type="text/css">*{stroke-linejoin: round; stroke-linecap: butt}</style>
 </defs>
 <g id="figure_1">
  <g id="patch_1">
   <path d="M 0 321.081187 
L 760.957344 321.081187 
L 760.957344 0 
L 0 0 
z
" style="fill: #fcfcfd"/>
  </g>
  <g id="axes_1">
   <g id="patch_2">
    <path d="M 72.997344 278.064 
L 278.045537 278.064 
L 278.045537 72.144 
L 72.997344 72.144 
z
" style="fill: #ffffff"/>
   </g>
   <g id="matplotlib.axis_1">
    <g id="xtick_1">
     <g id="line2d_1">
      <path d="M 82.317716 278.064 
L 82.317716 72.144 
" clip-path="url(#p70c4783608)" style="fill: none; stroke: #e6e8f0; stroke-linecap: round"/>
     </g>
     <g id="text_1">
      <!-- 1 -->
      <g style="fill: #6f768a" transform="translate(79.352872 295.707437) scale(0.11 -0.11)">
       <defs>
        <path id="SegoeUI-31" d="M 2263 0 
L 1750 0 
L 1750 3872 
Q 1691 3813 1577 3736 
Q 1463 3659 1320 3584 
Q 1178 3509 1020 3443 
Q 863 3378 713 3341 
L 713 3859 
Q 881 3906 1070 3986 
Q 1259 4066 1442 4164 
Q 1625 4263 1787 4370 
Q 1950 4478 2069 4581 
L 2263 4581 
L 2263 0 
z
" transform="scale(0.015625)"/>
       </defs>
       <use xlink:href="#SegoeUI-31"/>
      </g>
     </g>
    </g>
    <g id="xtick_2">
     <g id="line2d_2">
      <path d="M 144.453532 278.064 
L 144.453532 72.144 
" clip-path="url(#p70c4783608)" style="fill: none; stroke: #e6e8f0; stroke-linecap: round"/>
     </g>
     <g id="text_2">
      <!-- 2 -->
      <g style="fill: #6f768a" transform="translate(141.488688 295.707437) scale(0.11 -0.11)">
       <defs>
        <path id="SegoeUI-32" d="M 2413 3306 
Q 2413 3513 2348 3666 
Q 2284 3819 2173 3920 
Q 2063 4022 1913 4072 
Q 1763 4122 1588 4122 
Q 1438 4122 1294 4081 
Q 1150 4041 1014 3969 
Q 878 3897 751 3797 
Q 625 3697 516 3575 
L 516 4125 
Q 731 4334 998 4445 
Q 1266 4556 1650 4556 
Q 1925 4556 2159 4476 
Q 2394 4397 2566 4244 
Q 2738 4091 2836 3866 
Q 2934 3641 2934 3350 
Q 2934 3084 2873 2868 
Q 2813 2653 2689 2462 
Q 2566 2272 2378 2097 
Q 2191 1922 1938 1741 
Q 1622 1516 1417 1356 
Q 1213 1197 1092 1058 
Q 972 919 923 780 
Q 875 641 875 459 
L 3106 459 
L 3106 0 
L 341 0 
L 341 222 
Q 341 509 403 728 
Q 466 947 609 1144 
Q 753 1341 986 1537 
Q 1219 1734 1556 1981 
Q 1800 2156 1964 2315 
Q 2128 2475 2228 2634 
Q 2328 2794 2370 2958 
Q 2413 3122 2413 3306 
z
" transform="scale(0.015625)"/>
       </defs>
       <use xlink:href="#SegoeUI-32"/>
      </g>
     </g>
    </g>
    <g id="xtick_3">
     <g id="line2d_3">
      <path d="M 206.589348 278.064 
L 206.589348 72.144 
" clip-path="url(#p70c4783608)" style="fill: none; stroke: #e6e8f0; stroke-linecap: round"/>
     </g>
     <g id="text_3">
      <!-- 3 -->
      <g style="fill: #6f768a" transform="translate(203.624504 295.707437) scale(0.11 -0.11)">
       <defs>
        <path id="SegoeUI-33" d="M 2978 1269 
Q 2978 966 2864 717 
Q 2750 469 2542 292 
Q 2334 116 2043 19 
Q 1753 -78 1403 -78 
Q 763 -78 384 166 
L 384 716 
Q 838 359 1422 359 
Q 1656 359 1845 418 
Q 2034 478 2170 590 
Q 2306 703 2379 862 
Q 2453 1022 2453 1222 
Q 2453 2100 1203 2100 
L 831 2100 
L 831 2534 
L 1184 2534 
Q 2291 2534 2291 3359 
Q 2291 4122 1447 4122 
Q 972 4122 556 3803 
L 556 4300 
Q 984 4556 1575 4556 
Q 1856 4556 2084 4478 
Q 2313 4400 2475 4259 
Q 2638 4119 2727 3922 
Q 2816 3725 2816 3488 
Q 2816 2603 1922 2350 
L 1922 2338 
Q 2150 2313 2344 2227 
Q 2538 2141 2678 2003 
Q 2819 1866 2898 1680 
Q 2978 1494 2978 1269 
z
" transform="scale(0.015625)"/>
       </defs>
       <use xlink:href="#SegoeUI-33"/>
      </g>
     </g>
    </g>
    <g id="xtick_4">
     <g id="line2d_4">
      <path d="M 268.725164 278.064 
L 268.725164 72.144 
" clip-path="url(#p70c4783608)" style="fill: none; stroke: #e6e8f0; stroke-linecap: round"/>
     </g>
     <g id="text_4">
      <!-- 4 -->
      <g style="fill: #6f768a" transform="translate(265.76032 295.707437) scale(0.11 -0.11)">
       <defs>
        <path id="SegoeUI-34" d="M 2656 4481 
L 2656 1522 
L 3231 1522 
L 3231 1053 
L 2656 1053 
L 2656 0 
L 2150 0 
L 2150 1053 
L 44 1053 
L 44 1497 
Q 338 1828 638 2204 
Q 938 2581 1211 2968 
Q 1484 3356 1717 3742 
Q 1950 4128 2109 4481 
L 2656 4481 
z
M 622 1522 
L 2150 1522 
L 2150 3716 
Q 1916 3306 1706 2984 
Q 1497 2663 1308 2400 
Q 1119 2138 947 1925 
Q 775 1713 622 1522 
z
" transform="scale(0.015625)"/>
       </defs>
       <use xlink:href="#SegoeUI-34"/>
      </g>
     </g>
    </g>
    <g id="text_5">
     <!-- Quartile -->
     <g style="fill: #202433" transform="translate(154.21394 311.121187) scale(0.12 -0.12)">
      <defs>
       <path id="SegoeUI-51" d="M 2394 -75 
Q 1444 -75 866 553 
Q 294 1181 294 2188 
Q 294 3272 878 3913 
Q 1466 4556 2469 4556 
Q 3394 4556 3963 3931 
Q 4531 3306 4531 2297 
Q 4531 1200 3950 563 
Q 3813 409 3656 300 
L 4916 -603 
L 3963 -603 
L 3119 28 
Q 2788 -75 2394 -75 
z
M 2431 4081 
Q 1725 4081 1284 3572 
Q 844 3063 844 2234 
Q 844 1409 1272 900 
Q 1703 397 2394 397 
Q 3131 397 3556 878 
Q 3981 1359 3981 2225 
Q 3981 3116 3569 3597 
Q 3156 4081 2431 4081 
z
" transform="scale(0.015625)"/>
       <path id="SegoeUI-75" d="M 3106 0 
L 2594 0 
L 2594 506 
L 2581 506 
Q 2263 -75 1594 -75 
Q 450 -75 450 1288 
L 450 3200 
L 959 3200 
L 959 1369 
Q 959 356 1734 356 
Q 2109 356 2351 632 
Q 2594 909 2594 1356 
L 2594 3200 
L 3106 3200 
L 3106 0 
z
" transform="scale(0.015625)"/>
       <path id="SegoeUI-61" d="M 2809 0 
L 2297 0 
L 2297 500 
L 2284 500 
Q 1950 -75 1300 -75 
Q 822 -75 551 178 
Q 281 431 281 850 
Q 281 1747 1338 1894 
L 2297 2028 
Q 2297 2844 1638 2844 
Q 1059 2844 594 2450 
L 594 2975 
Q 1066 3275 1681 3275 
Q 2809 3275 2809 2081 
L 2809 0 
z
M 2297 1619 
L 1525 1513 
Q 1169 1463 987 1336 
Q 806 1209 806 888 
Q 806 653 973 504 
Q 1141 356 1419 356 
Q 1800 356 2048 623 
Q 2297 891 2297 1300 
L 2297 1619 
z
" transform="scale(0.015625)"/>
       <path id="SegoeUI-72" d="M 2188 2681 
Q 2053 2784 1800 2784 
Q 1472 2784 1251 2475 
Q 1031 2166 1031 1631 
L 1031 0 
L 519 0 
L 519 3200 
L 1031 3200 
L 1031 2541 
L 1044 2541 
Q 1153 2878 1378 3067 
Q 1603 3256 1881 3256 
Q 2081 3256 2188 3213 
L 2188 2681 
z
" transform="scale(0.015625)"/>
       <path id="SegoeUI-74" d="M 2003 31 
Q 1822 -69 1525 -69 
Q 684 -69 684 869 
L 684 2763 
L 134 2763 
L 134 3200 
L 684 3200 
L 684 3981 
L 1197 4147 
L 1197 3200 
L 2003 3200 
L 2003 2763 
L 1197 2763 
L 1197 959 
Q 1197 638 1306 500 
Q 1416 363 1669 363 
Q 1863 363 2003 469 
L 2003 31 
z
" transform="scale(0.015625)"/>
       <path id="SegoeUI-69" d="M 781 4013 
Q 644 4013 547 4106 
Q 450 4200 450 4344 
Q 450 4488 547 4583 
Q 644 4678 781 4678 
Q 922 4678 1020 4583 
Q 1119 4488 1119 4344 
Q 1119 4206 1020 4109 
Q 922 4013 781 4013 
z
M 1031 0 
L 519 0 
L 519 3200 
L 1031 3200 
L 1031 0 
z
" transform="scale(0.015625)"/>
       <path id="SegoeUI-6c" d="M 1031 0 
L 519 0 
L 519 4738 
L 1031 4738 
L 1031 0 
z
" transform="scale(0.015625)"/>
       <path id="SegoeUI-65" d="M 3091 1472 
L 831 1472 
Q 844 938 1119 647 
Q 1394 356 1875 356 
Q 2416 356 2869 713 
L 2869 231 
Q 2447 -75 1753 -75 
Q 1075 -75 687 361 
Q 300 797 300 1588 
Q 300 2334 723 2804 
Q 1147 3275 1775 3275 
Q 2403 3275 2747 2869 
Q 3091 2463 3091 1741 
L 3091 1472 
z
M 2566 1906 
Q 2563 2350 2352 2597 
Q 2141 2844 1766 2844 
Q 1403 2844 1150 2584 
Q 897 2325 838 1906 
L 2566 1906 
z
" transform="scale(0.015625)"/>
      </defs>
      <use xlink:href="#SegoeUI-51"/>
      <use xlink:href="#SegoeUI-75" transform="translate(75.390625 0)"/>
      <use xlink:href="#SegoeUI-61" transform="translate(131.982422 0)"/>
      <use xlink:href="#SegoeUI-72" transform="translate(182.861328 0)"/>
      <use xlink:href="#SegoeUI-74" transform="translate(220.501953 0)"/>
      <use xlink:href="#SegoeUI-69" transform="translate(254.388672 0)"/>
      <use xlink:href="#SegoeUI-6c" transform="translate(278.607422 0)"/>
      <use xlink:href="#SegoeUI-65" transform="translate(302.826172 0)"/>
     </g>
    </g>
   </g>
   <g id="matplotlib.axis_2">
    <g id="ytick_1">
     <g id="line2d_5">
      <path d="M 72.997344 268.06557 
L 278.045537 268.06557 
" clip-path="url(#p70c4783608)" style="fill: none; stroke: #e6e8f0; stroke-linecap: round"/>
     </g>
     <g id="text_6">
      <!-- -2.0e-02 -->
      <g style="fill: #6f768a" transform="translate(22.84375 272.137289) scale(0.11 -0.11)">
       <defs>
        <path id="SegoeUI-2d" d="M 2156 1581 
L 450 1581 
L 450 1984 
L 2156 1984 
L 2156 1581 
z
" transform="scale(0.015625)"/>
        <path id="SegoeUI-2e" d="M 697 -69 
Q 553 -69 451 34 
Q 350 138 350 281 
Q 350 425 451 529 
Q 553 634 697 634 
Q 844 634 947 529 
Q 1050 425 1050 281 
Q 1050 138 947 34 
Q 844 -69 697 -69 
z
" transform="scale(0.015625)"/>
        <path id="SegoeUI-30" d="M 3188 2259 
Q 3188 1697 3086 1262 
Q 2984 828 2792 529 
Q 2600 231 2320 76 
Q 2041 -78 1684 -78 
Q 1347 -78 1083 70 
Q 819 219 637 503 
Q 456 788 362 1202 
Q 269 1616 269 2150 
Q 269 2738 367 3188 
Q 466 3638 656 3942 
Q 847 4247 1130 4401 
Q 1413 4556 1778 4556 
Q 3188 4556 3188 2259 
z
M 2663 2209 
Q 2663 4122 1753 4122 
Q 794 4122 794 2175 
Q 794 359 1734 359 
Q 2663 359 2663 2209 
z
" transform="scale(0.015625)"/>
       </defs>
       <use xlink:href="#SegoeUI-2d"/>
       <use xlink:href="#SegoeUI-32" transform="translate(39.990234 0)"/>
       <use xlink:href="#SegoeUI-2e" transform="translate(93.896484 0)"/>
       <use xlink:href="#SegoeUI-30" transform="translate(115.576172 0)"/>
       <use xlink:href="#SegoeUI-65" transform="translate(169.482422 0)"/>
       <use xlink:href="#SegoeUI-2d" transform="translate(221.777344 0)"/>
       <use xlink:href="#SegoeUI-30" transform="translate(261.767578 0)"/>
       <use xlink:href="#SegoeUI-32" transform="translate(315.673828 0)"/>
      </g>
     </g>
    </g>
    <g id="ytick_2">
     <g id="line2d_6">
      <path d="M 72.997344 244.745374 
L 278.045537 244.745374 
" clip-path="url(#p70c4783608)" style="fill: none; stroke: #e6e8f0; stroke-linecap: round"/>
     </g>
     <g id="text_7">
      <!-- -1.7e-02 -->
      <g style="fill: #6f768a" transform="translate(22.84375 248.817093) scale(0.11 -0.11)">
       <defs>
        <path id="SegoeUI-37" d="M 3156 4184 
Q 3053 4006 2908 3740 
Q 2763 3475 2600 3144 
Q 2438 2813 2269 2431 
Q 2100 2050 1953 1644 
Q 1806 1238 1695 820 
Q 1584 403 1534 0 
L 984 0 
Q 1041 400 1158 817 
Q 1275 1234 1423 1636 
Q 1572 2038 1737 2409 
Q 1903 2781 2059 3093 
Q 2216 3406 2345 3645 
Q 2475 3884 2553 4019 
L 306 4019 
L 306 4481 
L 3156 4481 
L 3156 4184 
z
" transform="scale(0.015625)"/>
       </defs>
       <use xlink:href="#SegoeUI-2d"/>
       <use xlink:href="#SegoeUI-31" transform="translate(39.990234 0)"/>
       <use xlink:href="#SegoeUI-2e" transform="translate(93.896484 0)"/>
       <use xlink:href="#SegoeUI-37" transform="translate(115.576172 0)"/>
       <use xlink:href="#SegoeUI-65" transform="translate(169.482422 0)"/>
       <use xlink:href="#SegoeUI-2d" transform="translate(221.777344 0)"/>
       <use xlink:href="#SegoeUI-30" transform="translate(261.767578 0)"/>
       <use xlink:href="#SegoeUI-32" transform="translate(315.673828 0)"/>
      </g>
     </g>
    </g>
    <g id="ytick_3">
     <g id="line2d_7">
      <path d="M 72.997344 221.425178 
L 278.045537 221.425178 
" clip-path="url(#p70c4783608)" style="fill: none; stroke: #e6e8f0; stroke-linecap: round"/>
     </g>
     <g id="text_8">
      <!-- -1.5e-02 -->
      <g style="fill: #6f768a" transform="translate(22.84375 225.496896) scale(0.11 -0.11)">
       <defs>
        <path id="SegoeUI-35" d="M 3028 1369 
Q 3028 1041 2915 775 
Q 2803 509 2595 318 
Q 2388 128 2094 25 
Q 1800 -78 1441 -78 
Q 816 -78 513 109 
L 513 653 
Q 969 359 1447 359 
Q 1691 359 1886 431 
Q 2081 503 2218 631 
Q 2356 759 2429 940 
Q 2503 1122 2503 1338 
Q 2503 1775 2209 2023 
Q 1916 2272 1356 2272 
Q 1266 2272 1166 2269 
Q 1066 2266 966 2261 
Q 866 2256 770 2250 
Q 675 2244 597 2234 
L 750 4481 
L 2822 4481 
L 2822 4019 
L 1194 4019 
L 1103 2703 
Q 1203 2709 1315 2714 
Q 1428 2719 1516 2719 
Q 1872 2719 2153 2625 
Q 2434 2531 2629 2357 
Q 2825 2184 2926 1932 
Q 3028 1681 3028 1369 
z
" transform="scale(0.015625)"/>
       </defs>
       <use xlink:href="#SegoeUI-2d"/>
       <use xlink:href="#SegoeUI-31" transform="translate(39.990234 0)"/>
       <use xlink:href="#SegoeUI-2e" transform="translate(93.896484 0)"/>
       <use xlink:href="#SegoeUI-35" transform="translate(115.576172 0)"/>
       <use xlink:href="#SegoeUI-65" transform="translate(169.482422 0)"/>
       <use xlink:href="#SegoeUI-2d" transform="translate(221.777344 0)"/>
       <use xlink:href="#SegoeUI-30" transform="translate(261.767578 0)"/>
       <use xlink:href="#SegoeUI-32" transform="translate(315.673828 0)"/>
      </g>
     </g>
    </g>
    <g id="ytick_4">
     <g id="line2d_8">
      <path d="M 72.997344 198.104981 
L 278.045537 198.104981 
" clip-path="url(#p70c4783608)" style="fill: none; stroke: #e6e8f0; stroke-linecap: round"/>
     </g>
     <g id="text_9">
      <!-- -1.2e-02 -->
      <g style="fill: #6f768a" transform="translate(22.84375 202.1767) scale(0.11 -0.11)">
       <use xlink:href="#SegoeUI-2d"/>
       <use xlink:href="#SegoeUI-31" transform="translate(39.990234 0)"/>
       <use xlink:href="#SegoeUI-2e" transform="translate(93.896484 0)"/>
       <use xlink:href="#SegoeUI-32" transform="translate(115.576172 0)"/>
       <use xlink:href="#SegoeUI-65" transform="translate(169.482422 0)"/>
       <use xlink:href="#SegoeUI-2d" transform="translate(221.777344 0)"/>
       <use xlink:href="#SegoeUI-30" transform="translate(261.767578 0)"/>
       <use xlink:href="#SegoeUI-32" transform="translate(315.673828 0)"/>
      </g>
     </g>
    </g>
    <g id="ytick_5">
     <g id="line2d_9">
      <path d="M 72.997344 174.784785 
L 278.045537 174.784785 
" clip-path="url(#p70c4783608)" style="fill: none; stroke: #e6e8f0; stroke-linecap: round"/>
     </g>
     <g id="text_10">
      <!-- -1.0e-02 -->
      <g style="fill: #6f768a" transform="translate(22.84375 178.856504) scale(0.11 -0.11)">
       <use xlink:href="#SegoeUI-2d"/>
       <use xlink:href="#SegoeUI-31" transform="translate(39.990234 0)"/>
       <use xlink:href="#SegoeUI-2e" transform="translate(93.896484 0)"/>
       <use xlink:href="#SegoeUI-30" transform="translate(115.576172 0)"/>
       <use xlink:href="#SegoeUI-65" transform="translate(169.482422 0)"/>
       <use xlink:href="#SegoeUI-2d" transform="translate(221.777344 0)"/>
       <use xlink:href="#SegoeUI-30" transform="translate(261.767578 0)"/>
       <use xlink:href="#SegoeUI-32" transform="translate(315.673828 0)"/>
      </g>
     </g>
    </g>
    <g id="ytick_6">
     <g id="line2d_10">
      <path d="M 72.997344 151.464589 
L 278.045537 151.464589 
" clip-path="url(#p70c4783608)" style="fill: none; stroke: #e6e8f0; stroke-linecap: round"/>
     </g>
     <g id="text_11">
      <!-- -7.5e-03 -->
      <g style="fill: #6f768a" transform="translate(22.84375 155.536308) scale(0.11 -0.11)">
       <use xlink:href="#SegoeUI-2d"/>
       <use xlink:href="#SegoeUI-37" transform="translate(39.990234 0)"/>
       <use xlink:href="#SegoeUI-2e" transform="translate(93.896484 0)"/>
       <use xlink:href="#SegoeUI-35" transform="translate(115.576172 0)"/>
       <use xlink:href="#SegoeUI-65" transform="translate(169.482422 0)"/>
       <use xlink:href="#SegoeUI-2d" transform="translate(221.777344 0)"/>
       <use xlink:href="#SegoeUI-30" transform="translate(261.767578 0)"/>
       <use xlink:href="#SegoeUI-33" transform="translate(315.673828 0)"/>
      </g>
     </g>
    </g>
    <g id="ytick_7">
     <g id="line2d_11">
      <path d="M 72.997344 128.144393 
L 278.045537 128.144393 
" clip-path="url(#p70c4783608)" style="fill: none; stroke: #e6e8f0; stroke-linecap: round"/>
     </g>
     <g id="text_12">
      <!-- -5.0e-03 -->
      <g style="fill: #6f768a" transform="translate(22.84375 132.216111) scale(0.11 -0.11)">
       <use xlink:href="#SegoeUI-2d"/>
       <use xlink:href="#SegoeUI-35" transform="translate(39.990234 0)"/>
       <use xlink:href="#SegoeUI-2e" transform="translate(93.896484 0)"/>
       <use xlink:href="#SegoeUI-30" transform="translate(115.576172 0)"/>
       <use xlink:href="#SegoeUI-65" transform="translate(169.482422 0)"/>
       <use xlink:href="#SegoeUI-2d" transform="translate(221.777344 0)"/>
       <use xlink:href="#SegoeUI-30" transform="translate(261.767578 0)"/>
       <use xlink:href="#SegoeUI-33" transform="translate(315.673828 0)"/>
      </g>
     </g>
    </g>
    <g id="ytick_8">
     <g id="line2d_12">
      <path d="M 72.997344 104.824196 
L 278.045537 104.824196 
" clip-path="url(#p70c4783608)" style="fill: none; stroke: #e6e8f0; stroke-linecap: round"/>
     </g>
     <g id="text_13">
      <!-- -2.5e-03 -->
      <g style="fill: #6f768a" transform="translate(22.84375 108.895915) scale(0.11 -0.11)">
       <use xlink:href="#SegoeUI-2d"/>
       <use xlink:href="#SegoeUI-32" transform="translate(39.990234 0)"/>
       <use xlink:href="#SegoeUI-2e" transform="translate(93.896484 0)"/>
       <use xlink:href="#SegoeUI-35" transform="translate(115.576172 0)"/>
       <use xlink:href="#SegoeUI-65" transform="translate(169.482422 0)"/>
       <use xlink:href="#SegoeUI-2d" transform="translate(221.777344 0)"/>
       <use xlink:href="#SegoeUI-30" transform="translate(261.767578 0)"/>
       <use xlink:href="#SegoeUI-33" transform="translate(315.673828 0)"/>
      </g>
     </g>
    </g>
    <g id="ytick_9">
     <g id="line2d_13">
      <path d="M 72.997344 81.504 
L 278.045537 81.504 
" clip-path="url(#p70c4783608)" style="fill: none; stroke: #e6e8f0; stroke-linecap: round"/>
     </g>
     <g id="text_14">
      <!-- 0.0e+00 -->
      <g style="fill: #6f768a" transform="translate(24.115625 85.575719) scale(0.11 -0.11)">
       <defs>
        <path id="SegoeUI-2b" d="M 3663 1656 
L 2400 1656 
L 2400 397 
L 1984 397 
L 1984 1656 
L 725 1656 
L 725 2075 
L 1984 2075 
L 1984 3334 
L 2400 3334 
L 2400 2075 
L 3663 2075 
L 3663 1656 
z
" transform="scale(0.015625)"/>
       </defs>
       <use xlink:href="#SegoeUI-30"/>
       <use xlink:href="#SegoeUI-2e" transform="translate(53.90625 0)"/>
       <use xlink:href="#SegoeUI-30" transform="translate(75.585938 0)"/>
       <use xlink:href="#SegoeUI-65" transform="translate(129.492188 0)"/>
       <use xlink:href="#SegoeUI-2b" transform="translate(181.787109 0)"/>
       <use xlink:href="#SegoeUI-30" transform="translate(250.195312 0)"/>
       <use xlink:href="#SegoeUI-30" transform="translate(304.101562 0)"/>
      </g>
     </g>
    </g>
    <g id="text_15">
     <!-- Delta epsilon -->
     <g style="fill: #202433" transform="translate(16.08375 209.661187) rotate(-90) scale(0.12 -0.12)">
      <defs>
       <path id="SegoeUI-44" d="M 588 0 
L 588 4481 
L 1825 4481 
Q 4194 4481 4194 2297 
Q 4194 1259 3536 629 
Q 2878 0 1775 0 
L 588 0 
z
M 1113 4006 
L 1113 475 
L 1781 475 
Q 2663 475 3153 947 
Q 3644 1419 3644 2284 
Q 3644 4006 1813 4006 
L 1113 4006 
z
" transform="scale(0.015625)"/>
       <path id="SegoeUI-20" transform="scale(0.015625)"/>
       <path id="SegoeUI-70" d="M 1044 463 
L 1031 463 
L 1031 -1472 
L 519 -1472 
L 519 3200 
L 1031 3200 
L 1031 2638 
L 1044 2638 
Q 1422 3275 2150 3275 
Q 2769 3275 3116 2845 
Q 3463 2416 3463 1694 
Q 3463 891 3072 408 
Q 2681 -75 2003 -75 
Q 1381 -75 1044 463 
z
M 1031 1753 
L 1031 1306 
Q 1031 909 1289 632 
Q 1547 356 1944 356 
Q 2409 356 2673 712 
Q 2938 1069 2938 1703 
Q 2938 2238 2691 2541 
Q 2444 2844 2022 2844 
Q 1575 2844 1303 2533 
Q 1031 2222 1031 1753 
z
" transform="scale(0.015625)"/>
       <path id="SegoeUI-73" d="M 325 116 
L 325 666 
Q 744 356 1247 356 
Q 1922 356 1922 806 
Q 1922 934 1864 1023 
Q 1806 1113 1707 1181 
Q 1609 1250 1476 1304 
Q 1344 1359 1191 1419 
Q 978 1503 817 1589 
Q 656 1675 548 1783 
Q 441 1891 386 2028 
Q 331 2166 331 2350 
Q 331 2575 434 2748 
Q 538 2922 709 3039 
Q 881 3156 1101 3215 
Q 1322 3275 1556 3275 
Q 1972 3275 2300 3131 
L 2300 2613 
Q 1947 2844 1488 2844 
Q 1344 2844 1228 2811 
Q 1113 2778 1030 2718 
Q 947 2659 901 2576 
Q 856 2494 856 2394 
Q 856 2269 901 2184 
Q 947 2100 1034 2034 
Q 1122 1969 1247 1916 
Q 1372 1863 1531 1800 
Q 1744 1719 1912 1633 
Q 2081 1547 2200 1439 
Q 2319 1331 2383 1190 
Q 2447 1050 2447 856 
Q 2447 619 2342 444 
Q 2238 269 2063 153 
Q 1888 38 1659 -18 
Q 1431 -75 1181 -75 
Q 688 -75 325 116 
z
" transform="scale(0.015625)"/>
       <path id="SegoeUI-6f" d="M 1856 -75 
Q 1147 -75 723 373 
Q 300 822 300 1563 
Q 300 2369 740 2822 
Q 1181 3275 1931 3275 
Q 2647 3275 3048 2834 
Q 3450 2394 3450 1613 
Q 3450 847 3017 386 
Q 2584 -75 1856 -75 
z
M 1894 2844 
Q 1400 2844 1112 2508 
Q 825 2172 825 1581 
Q 825 1013 1115 684 
Q 1406 356 1894 356 
Q 2391 356 2658 678 
Q 2925 1000 2925 1594 
Q 2925 2194 2658 2519 
Q 2391 2844 1894 2844 
z
" transform="scale(0.015625)"/>
       <path id="SegoeUI-6e" d="M 3175 0 
L 2663 0 
L 2663 1825 
Q 2663 2844 1919 2844 
Q 1534 2844 1282 2555 
Q 1031 2266 1031 1825 
L 1031 0 
L 519 0 
L 519 3200 
L 1031 3200 
L 1031 2669 
L 1044 2669 
Q 1406 3275 2094 3275 
Q 2619 3275 2897 2936 
Q 3175 2597 3175 1956 
L 3175 0 
z
" transform="scale(0.015625)"/>
      </defs>
      <use xlink:href="#SegoeUI-44"/>
      <use xlink:href="#SegoeUI-65" transform="translate(70.117188 0)"/>
      <use xlink:href="#SegoeUI-6c" transform="translate(122.412109 0)"/>
      <use xlink:href="#SegoeUI-74" transform="translate(146.630859 0)"/>
      <use xlink:href="#SegoeUI-61" transform="translate(180.517578 0)"/>
      <use xlink:href="#SegoeUI-20" transform="translate(231.396484 0)"/>
      <use xlink:href="#SegoeUI-65" transform="translate(258.789062 0)"/>
      <use xlink:href="#SegoeUI-70" transform="translate(311.083984 0)"/>
      <use xlink:href="#SegoeUI-73" transform="translate(369.873047 0)"/>
      <use xlink:href="#SegoeUI-69" transform="translate(412.304688 0)"/>
      <use xlink:href="#SegoeUI-6c" transform="translate(436.523438 0)"/>
      <use xlink:href="#SegoeUI-6f" transform="translate(460.742188 0)"/>
      <use xlink:href="#SegoeUI-6e" transform="translate(519.335938 0)"/>
     </g>
    </g>
   </g>
   <g id="line2d_14">
    <path d="M 82.317716 157.445301 
L 144.453532 140.358206 
L 206.589348 163.469222 
L 268.725164 150.454638 
" clip-path="url(#p70c4783608)" style="fill: none; stroke: #3d6dcc; stroke-width: 1.5; stroke-linecap: round"/>
    <defs>
     <path id="m103a6e4e95" d="M 0 3 
C 0.795609 3 1.55874 2.683901 2.12132 2.12132 
C 2.683901 1.55874 3 0.795609 3 0 
C 3 -0.795609 2.683901 -1.55874 2.12132 -2.12132 
C 1.55874 -2.683901 0.795609 -3 0 -3 
C -0.795609 -3 -1.55874 -2.683901 -2.12132 -2.12132 
C -2.683901 -1.55874 -3 -0.795609 -3 0 
C -3 0.795609 -2.683901 1.55874 -2.12132 2.12132 
C -1.55874 2.683901 -0.795609 3 0 3 
z
" style="stroke: #3d6dcc"/>
    </defs>
    <g clip-path="url(#p70c4783608)">
     <use xlink:href="#m103a6e4e95" x="82.317716" y="157.445301" style="fill: #3d6dcc; stroke: #3d6dcc"/>
     <use xlink:href="#m103a6e4e95" x="144.453532" y="140.358206" style="fill: #3d6dcc; stroke: #3d6dcc"/>
     <use xlink:href="#m103a6e4e95" x="206.589348" y="163.469222" style="fill: #3d6dcc; stroke: #3d6dcc"/>
     <use xlink:href="#m103a6e4e95" x="268.725164" y="150.454638" style="fill: #3d6dcc; stroke: #3d6dcc"/>
    </g>
   </g>
   <g id="line2d_15">
    <path d="M 82.317716 117.388242 
L 144.453532 118.458015 
L 206.589348 85.348162 
L 268.725164 91.836367 
" clip-path="url(#p70c4783608)" style="fill: none; stroke: #b65045; stroke-width: 1.5; stroke-linecap: round"/>
    <defs>
     <path id="m423912681d" d="M -3 3 
L 3 3 
L 3 -3 
L -3 -3 
z
" style="stroke: #b65045; stroke-linejoin: miter"/>
    </defs>
    <g clip-path="url(#p70c4783608)">
     <use xlink:href="#m423912681d" x="82.317716" y="117.388242" style="fill: #b65045; stroke: #b65045; stroke-linejoin: miter"/>
     <use xlink:href="#m423912681d" x="144.453532" y="118.458015" style="fill: #b65045; stroke: #b65045; stroke-linejoin: miter"/>
     <use xlink:href="#m423912681d" x="206.589348" y="85.348162" style="fill: #b65045; stroke: #b65045; stroke-linejoin: miter"/>
     <use xlink:href="#m423912681d" x="268.725164" y="91.836367" style="fill: #b65045; stroke: #b65045; stroke-linejoin: miter"/>
    </g>
   </g>
   <g id="line2d_16">
    <path d="M 72.997344 81.504 
L 278.045537 81.504 
" clip-path="url(#p70c4783608)" style="fill: none; stroke: #202433; stroke-width: 0.9; stroke-linecap: round"/>
   </g>
   <g id="patch_3">
    <path d="M 72.997344 278.064 
L 72.997344 72.144 
" style="fill: none; stroke: #d7dbe7; stroke-width: 1.25; stroke-linejoin: miter; stroke-linecap: square"/>
   </g>
   <g id="patch_4">
    <path d="M 278.045537 278.064 
L 278.045537 72.144 
" style="fill: none; stroke: #d7dbe7; stroke-width: 1.25; stroke-linejoin: miter; stroke-linecap: square"/>
   </g>
   <g id="patch_5">
    <path d="M 72.997344 278.064 
L 278.045537 278.064 
" style="fill: none; stroke: #d7dbe7; stroke-width: 1.25; stroke-linejoin: miter; stroke-linecap: square"/>
   </g>
   <g id="patch_6">
    <path d="M 72.997344 72.144 
L 278.045537 72.144 
" style="fill: none; stroke: #d7dbe7; stroke-width: 1.25; stroke-linejoin: miter; stroke-linecap: square"/>
   </g>
   <g id="text_16">
    <!-- Precipitation -->
    <g style="fill: #202433" transform="translate(142.331128 66.144) scale(0.12 -0.12)">
     <defs>
      <path id="SegoeUI-50" d="M 1113 1694 
L 1113 0 
L 588 0 
L 588 4481 
L 1819 4481 
Q 2538 4481 2933 4131 
Q 3328 3781 3328 3144 
Q 3328 2506 2889 2100 
Q 2450 1694 1703 1694 
L 1113 1694 
z
M 1113 4006 
L 1113 2169 
L 1663 2169 
Q 2206 2169 2492 2417 
Q 2778 2666 2778 3119 
Q 2778 4006 1728 4006 
L 1113 4006 
z
" transform="scale(0.015625)"/>
      <path id="SegoeUI-63" d="M 2700 147 
Q 2331 -75 1825 -75 
Q 1141 -75 720 370 
Q 300 816 300 1525 
Q 300 2316 753 2795 
Q 1206 3275 1963 3275 
Q 2384 3275 2706 3119 
L 2706 2594 
Q 2350 2844 1944 2844 
Q 1453 2844 1139 2492 
Q 825 2141 825 1569 
Q 825 1006 1120 681 
Q 1416 356 1913 356 
Q 2331 356 2700 634 
L 2700 147 
z
" transform="scale(0.015625)"/>
     </defs>
     <use xlink:href="#SegoeUI-50"/>
     <use xlink:href="#SegoeUI-72" transform="translate(56.005859 0)"/>
     <use xlink:href="#SegoeUI-65" transform="translate(89.396484 0)"/>
     <use xlink:href="#SegoeUI-63" transform="translate(141.691406 0)"/>
     <use xlink:href="#SegoeUI-69" transform="translate(187.882812 0)"/>
     <use xlink:href="#SegoeUI-70" transform="translate(212.101562 0)"/>
     <use xlink:href="#SegoeUI-69" transform="translate(270.890625 0)"/>
     <use xlink:href="#SegoeUI-74" transform="translate(295.109375 0)"/>
     <use xlink:href="#SegoeUI-61" transform="translate(328.996094 0)"/>
     <use xlink:href="#SegoeUI-74" transform="translate(379.875 0)"/>
     <use xlink:href="#SegoeUI-69" transform="translate(413.761719 0)"/>
     <use xlink:href="#SegoeUI-6f" transform="translate(437.980469 0)"/>
     <use xlink:href="#SegoeUI-6e" transform="translate(496.574219 0)"/>
    </g>
   </g>
  </g>
  <g id="axes_2">
   <g id="patch_7">
    <path d="M 310.853247 278.064 
L 515.90144 278.064 
L 515.90144 72.144 
L 310.853247 72.144 
z
" style="fill: #ffffff"/>
   </g>
   <g id="matplotlib.axis_3">
    <g id="xtick_5">
     <g id="line2d_17">
      <path d="M 320.17362 278.064 
L 320.17362 72.144 
" clip-path="url(#p3a20065f84)" style="fill: none; stroke: #e6e8f0; stroke-linecap: round"/>
     </g>
     <g id="text_17">
      <!-- 1 -->
      <g style="fill: #6f768a" transform="translate(317.208776 295.707437) scale(0.11 -0.11)">
       <use xlink:href="#SegoeUI-31"/>
      </g>
     </g>
    </g>
    <g id="xtick_6">
     <g id="line2d_18">
      <path d="M 382.309436 278.064 
L 382.309436 72.144 
" clip-path="url(#p3a20065f84)" style="fill: none; stroke: #e6e8f0; stroke-linecap: round"/>
     </g>
     <g id="text_18">
      <!-- 2 -->
      <g style="fill: #6f768a" transform="translate(379.344592 295.707437) scale(0.11 -0.11)">
       <use xlink:href="#SegoeUI-32"/>
      </g>
     </g>
    </g>
    <g id="xtick_7">
     <g id="line2d_19">
      <path d="M 444.445252 278.064 
L 444.445252 72.144 
" clip-path="url(#p3a20065f84)" style="fill: none; stroke: #e6e8f0; stroke-linecap: round"/>
     </g>
     <g id="text_19">
      <!-- 3 -->
      <g style="fill: #6f768a" transform="translate(441.480408 295.707437) scale(0.11 -0.11)">
       <use xlink:href="#SegoeUI-33"/>
      </g>
     </g>
    </g>
    <g id="xtick_8">
     <g id="line2d_20">
      <path d="M 506.581068 278.064 
L 506.581068 72.144 
" clip-path="url(#p3a20065f84)" style="fill: none; stroke: #e6e8f0; stroke-linecap: round"/>
     </g>
     <g id="text_20">
      <!-- 4 -->
      <g style="fill: #6f768a" transform="translate(503.616224 295.707437) scale(0.11 -0.11)">
       <use xlink:href="#SegoeUI-34"/>
      </g>
     </g>
    </g>
    <g id="text_21">
     <!-- Quartile -->
     <g style="fill: #202433" transform="translate(392.069844 311.121187) scale(0.12 -0.12)">
      <use xlink:href="#SegoeUI-51"/>
      <use xlink:href="#SegoeUI-75" transform="translate(75.390625 0)"/>
      <use xlink:href="#SegoeUI-61" transform="translate(131.982422 0)"/>
      <use xlink:href="#SegoeUI-72" transform="translate(182.861328 0)"/>
      <use xlink:href="#SegoeUI-74" transform="translate(220.501953 0)"/>
      <use xlink:href="#SegoeUI-69" transform="translate(254.388672 0)"/>
      <use xlink:href="#SegoeUI-6c" transform="translate(278.607422 0)"/>
      <use xlink:href="#SegoeUI-65" transform="translate(302.826172 0)"/>
     </g>
    </g>
   </g>
   <g id="matplotlib.axis_4">
    <g id="ytick_10">
     <g id="line2d_21">
      <path d="M 310.853247 268.06557 
L 515.90144 268.06557 
" clip-path="url(#p3a20065f84)" style="fill: none; stroke: #e6e8f0; stroke-linecap: round"/>
     </g>
    </g>
    <g id="ytick_11">
     <g id="line2d_22">
      <path d="M 310.853247 244.745374 
L 515.90144 244.745374 
" clip-path="url(#p3a20065f84)" style="fill: none; stroke: #e6e8f0; stroke-linecap: round"/>
     </g>
    </g>
    <g id="ytick_12">
     <g id="line2d_23">
      <path d="M 310.853247 221.425178 
L 515.90144 221.425178 
" clip-path="url(#p3a20065f84)" style="fill: none; stroke: #e6e8f0; stroke-linecap: round"/>
     </g>
    </g>
    <g id="ytick_13">
     <g id="line2d_24">
      <path d="M 310.853247 198.104981 
L 515.90144 198.104981 
" clip-path="url(#p3a20065f84)" style="fill: none; stroke: #e6e8f0; stroke-linecap: round"/>
     </g>
    </g>
    <g id="ytick_14">
     <g id="line2d_25">
      <path d="M 310.853247 174.784785 
L 515.90144 174.784785 
" clip-path="url(#p3a20065f84)" style="fill: none; stroke: #e6e8f0; stroke-linecap: round"/>
     </g>
    </g>
    <g id="ytick_15">
     <g id="line2d_26">
      <path d="M 310.853247 151.464589 
L 515.90144 151.464589 
" clip-path="url(#p3a20065f84)" style="fill: none; stroke: #e6e8f0; stroke-linecap: round"/>
     </g>
    </g>
    <g id="ytick_16">
     <g id="line2d_27">
      <path d="M 310.853247 128.144393 
L 515.90144 128.144393 
" clip-path="url(#p3a20065f84)" style="fill: none; stroke: #e6e8f0; stroke-linecap: round"/>
     </g>
    </g>
    <g id="ytick_17">
     <g id="line2d_28">
      <path d="M 310.853247 104.824196 
L 515.90144 104.824196 
" clip-path="url(#p3a20065f84)" style="fill: none; stroke: #e6e8f0; stroke-linecap: round"/>
     </g>
    </g>
    <g id="ytick_18">
     <g id="line2d_29">
      <path d="M 310.853247 81.504 
L 515.90144 81.504 
" clip-path="url(#p3a20065f84)" style="fill: none; stroke: #e6e8f0; stroke-linecap: round"/>
     </g>
    </g>
   </g>
   <g id="line2d_30">
    <path d="M 320.17362 240.386268 
L 382.309436 137.062297 
L 444.445252 141.341067 
L 506.581068 92.648742 
" clip-path="url(#p3a20065f84)" style="fill: none; stroke: #3d6dcc; stroke-width: 1.5; stroke-linecap: round"/>
    <g clip-path="url(#p3a20065f84)">
     <use xlink:href="#m103a6e4e95" x="320.17362" y="240.386268" style="fill: #3d6dcc; stroke: #3d6dcc"/>
     <use xlink:href="#m103a6e4e95" x="382.309436" y="137.062297" style="fill: #3d6dcc; stroke: #3d6dcc"/>
     <use xlink:href="#m103a6e4e95" x="444.445252" y="141.341067" style="fill: #3d6dcc; stroke: #3d6dcc"/>
     <use xlink:href="#m103a6e4e95" x="506.581068" y="92.648742" style="fill: #3d6dcc; stroke: #3d6dcc"/>
    </g>
   </g>
   <g id="line2d_31">
    <path d="M 320.17362 121.301139 
L 382.309436 126.72739 
L 444.445252 92.771067 
L 506.581068 87.646514 
" clip-path="url(#p3a20065f84)" style="fill: none; stroke: #b65045; stroke-width: 1.5; stroke-linecap: round"/>
    <g clip-path="url(#p3a20065f84)">
     <use xlink:href="#m423912681d" x="320.17362" y="121.301139" style="fill: #b65045; stroke: #b65045; stroke-linejoin: miter"/>
     <use xlink:href="#m423912681d" x="382.309436" y="126.72739" style="fill: #b65045; stroke: #b65045; stroke-linejoin: miter"/>
     <use xlink:href="#m423912681d" x="444.445252" y="92.771067" style="fill: #b65045; stroke: #b65045; stroke-linejoin: miter"/>
     <use xlink:href="#m423912681d" x="506.581068" y="87.646514" style="fill: #b65045; stroke: #b65045; stroke-linejoin: miter"/>
    </g>
   </g>
   <g id="line2d_32">
    <path d="M 310.853247 81.504 
L 515.90144 81.504 
" clip-path="url(#p3a20065f84)" style="fill: none; stroke: #202433; stroke-width: 0.9; stroke-linecap: round"/>
   </g>
   <g id="patch_8">
    <path d="M 310.853247 278.064 
L 310.853247 72.144 
" style="fill: none; stroke: #d7dbe7; stroke-width: 1.25; stroke-linejoin: miter; stroke-linecap: square"/>
   </g>
   <g id="patch_9">
    <path d="M 515.90144 278.064 
L 515.90144 72.144 
" style="fill: none; stroke: #d7dbe7; stroke-width: 1.25; stroke-linejoin: miter; stroke-linecap: square"/>
   </g>
   <g id="patch_10">
    <path d="M 310.853247 278.064 
L 515.90144 278.064 
" style="fill: none; stroke: #d7dbe7; stroke-width: 1.25; stroke-linejoin: miter; stroke-linecap: square"/>
   </g>
   <g id="patch_11">
    <path d="M 310.853247 72.144 
L 515.90144 72.144 
" style="fill: none; stroke: #d7dbe7; stroke-width: 1.25; stroke-linejoin: miter; stroke-linecap: square"/>
   </g>
   <g id="text_22">
    <!-- Temperature -->
    <g style="fill: #202433" transform="translate(380.168281 66.144) scale(0.12 -0.12)">
     <defs>
      <path id="SegoeUI-54" d="M 3238 4006 
L 1944 4006 
L 1944 0 
L 1419 0 
L 1419 4006 
L 128 4006 
L 128 4481 
L 3238 4481 
L 3238 4006 
z
" transform="scale(0.015625)"/>
      <path id="SegoeUI-6d" d="M 5063 0 
L 4550 0 
L 4550 1838 
Q 4550 2369 4386 2606 
Q 4222 2844 3834 2844 
Q 3506 2844 3276 2544 
Q 3047 2244 3047 1825 
L 3047 0 
L 2534 0 
L 2534 1900 
Q 2534 2844 1806 2844 
Q 1469 2844 1250 2561 
Q 1031 2278 1031 1825 
L 1031 0 
L 519 0 
L 519 3200 
L 1031 3200 
L 1031 2694 
L 1044 2694 
Q 1384 3275 2038 3275 
Q 2366 3275 2609 3092 
Q 2853 2909 2944 2613 
Q 3300 3275 4006 3275 
Q 5063 3275 5063 1972 
L 5063 0 
z
" transform="scale(0.015625)"/>
     </defs>
     <use xlink:href="#SegoeUI-54"/>
     <use xlink:href="#SegoeUI-65" transform="translate(42.142578 0)"/>
     <use xlink:href="#SegoeUI-6d" transform="translate(94.4375 0)"/>
     <use xlink:href="#SegoeUI-70" transform="translate(180.570312 0)"/>
     <use xlink:href="#SegoeUI-65" transform="translate(239.359375 0)"/>
     <use xlink:href="#SegoeUI-72" transform="translate(291.654297 0)"/>
     <use xlink:href="#SegoeUI-61" transform="translate(326.419922 0)"/>
     <use xlink:href="#SegoeUI-74" transform="translate(377.298828 0)"/>
     <use xlink:href="#SegoeUI-75" transform="translate(411.185547 0)"/>
     <use xlink:href="#SegoeUI-72" transform="translate(467.777344 0)"/>
     <use xlink:href="#SegoeUI-65" transform="translate(501.167969 0)"/>
    </g>
   </g>
  </g>
  <g id="axes_3">
   <g id="patch_12">
    <path d="M 548.709151 278.064 
L 753.757344 278.064 
L 753.757344 72.144 
L 548.709151 72.144 
z
" style="fill: #ffffff"/>
   </g>
   <g id="matplotlib.axis_5">
    <g id="xtick_9">
     <g id="line2d_33">
      <path d="M 558.029523 278.064 
L 558.029523 72.144 
" clip-path="url(#p53420345b4)" style="fill: none; stroke: #e6e8f0; stroke-linecap: round"/>
     </g>
     <g id="text_23">
      <!-- 1 -->
      <g style="fill: #6f768a" transform="translate(555.06468 295.707437) scale(0.11 -0.11)">
       <use xlink:href="#SegoeUI-31"/>
      </g>
     </g>
    </g>
    <g id="xtick_10">
     <g id="line2d_34">
      <path d="M 620.165339 278.064 
L 620.165339 72.144 
" clip-path="url(#p53420345b4)" style="fill: none; stroke: #e6e8f0; stroke-linecap: round"/>
     </g>
     <g id="text_24">
      <!-- 2 -->
      <g style="fill: #6f768a" transform="translate(617.200496 295.707437) scale(0.11 -0.11)">
       <use xlink:href="#SegoeUI-32"/>
      </g>
     </g>
    </g>
    <g id="xtick_11">
     <g id="line2d_35">
      <path d="M 682.301155 278.064 
L 682.301155 72.144 
" clip-path="url(#p53420345b4)" style="fill: none; stroke: #e6e8f0; stroke-linecap: round"/>
     </g>
     <g id="text_25">
      <!-- 3 -->
      <g style="fill: #6f768a" transform="translate(679.336312 295.707437) scale(0.11 -0.11)">
       <use xlink:href="#SegoeUI-33"/>
      </g>
     </g>
    </g>
    <g id="xtick_12">
     <g id="line2d_36">
      <path d="M 744.436971 278.064 
L 744.436971 72.144 
" clip-path="url(#p53420345b4)" style="fill: none; stroke: #e6e8f0; stroke-linecap: round"/>
     </g>
     <g id="text_26">
      <!-- 4 -->
      <g style="fill: #6f768a" transform="translate(741.472128 295.707437) scale(0.11 -0.11)">
       <use xlink:href="#SegoeUI-34"/>
      </g>
     </g>
    </g>
    <g id="text_27">
     <!-- Quartile -->
     <g style="fill: #202433" transform="translate(629.925747 311.121187) scale(0.12 -0.12)">
      <use xlink:href="#SegoeUI-51"/>
      <use xlink:href="#SegoeUI-75" transform="translate(75.390625 0)"/>
      <use xlink:href="#SegoeUI-61" transform="translate(131.982422 0)"/>
      <use xlink:href="#SegoeUI-72" transform="translate(182.861328 0)"/>
      <use xlink:href="#SegoeUI-74" transform="translate(220.501953 0)"/>
      <use xlink:href="#SegoeUI-69" transform="translate(254.388672 0)"/>
      <use xlink:href="#SegoeUI-6c" transform="translate(278.607422 0)"/>
      <use xlink:href="#SegoeUI-65" transform="translate(302.826172 0)"/>
     </g>
    </g>
   </g>
   <g id="matplotlib.axis_6">
    <g id="ytick_19">
     <g id="line2d_37">
      <path d="M 548.709151 268.06557 
L 753.757344 268.06557 
" clip-path="url(#p53420345b4)" style="fill: none; stroke: #e6e8f0; stroke-linecap: round"/>
     </g>
    </g>
    <g id="ytick_20">
     <g id="line2d_38">
      <path d="M 548.709151 244.745374 
L 753.757344 244.745374 
" clip-path="url(#p53420345b4)" style="fill: none; stroke: #e6e8f0; stroke-linecap: round"/>
     </g>
    </g>
    <g id="ytick_21">
     <g id="line2d_39">
      <path d="M 548.709151 221.425178 
L 753.757344 221.425178 
" clip-path="url(#p53420345b4)" style="fill: none; stroke: #e6e8f0; stroke-linecap: round"/>
     </g>
    </g>
    <g id="ytick_22">
     <g id="line2d_40">
      <path d="M 548.709151 198.104981 
L 753.757344 198.104981 
" clip-path="url(#p53420345b4)" style="fill: none; stroke: #e6e8f0; stroke-linecap: round"/>
     </g>
    </g>
    <g id="ytick_23">
     <g id="line2d_41">
      <path d="M 548.709151 174.784785 
L 753.757344 174.784785 
" clip-path="url(#p53420345b4)" style="fill: none; stroke: #e6e8f0; stroke-linecap: round"/>
     </g>
    </g>
    <g id="ytick_24">
     <g id="line2d_42">
      <path d="M 548.709151 151.464589 
L 753.757344 151.464589 
" clip-path="url(#p53420345b4)" style="fill: none; stroke: #e6e8f0; stroke-linecap: round"/>
     </g>
    </g>
    <g id="ytick_25">
     <g id="line2d_43">
      <path d="M 548.709151 128.144393 
L 753.757344 128.144393 
" clip-path="url(#p53420345b4)" style="fill: none; stroke: #e6e8f0; stroke-linecap: round"/>
     </g>
    </g>
    <g id="ytick_26">
     <g id="line2d_44">
      <path d="M 548.709151 104.824196 
L 753.757344 104.824196 
" clip-path="url(#p53420345b4)" style="fill: none; stroke: #e6e8f0; stroke-linecap: round"/>
     </g>
    </g>
    <g id="ytick_27">
     <g id="line2d_45">
      <path d="M 548.709151 81.504 
L 753.757344 81.504 
" clip-path="url(#p53420345b4)" style="fill: none; stroke: #e6e8f0; stroke-linecap: round"/>
     </g>
    </g>
   </g>
   <g id="line2d_46">
    <path d="M 558.029523 268.704 
L 620.165339 123.459283 
L 682.301155 132.034464 
L 744.436971 87.644854 
" clip-path="url(#p53420345b4)" style="fill: none; stroke: #3d6dcc; stroke-width: 1.5; stroke-linecap: round"/>
    <g clip-path="url(#p53420345b4)">
     <use xlink:href="#m103a6e4e95" x="558.029523" y="268.704" style="fill: #3d6dcc; stroke: #3d6dcc"/>
     <use xlink:href="#m103a6e4e95" x="620.165339" y="123.459283" style="fill: #3d6dcc; stroke: #3d6dcc"/>
     <use xlink:href="#m103a6e4e95" x="682.301155" y="132.034464" style="fill: #3d6dcc; stroke: #3d6dcc"/>
     <use xlink:href="#m103a6e4e95" x="744.436971" y="87.644854" style="fill: #3d6dcc; stroke: #3d6dcc"/>
    </g>
   </g>
   <g id="line2d_47">
    <path d="M 558.029523 106.586753 
L 620.165339 114.074293 
L 682.301155 97.308279 
L 744.436971 87.695858 
" clip-path="url(#p53420345b4)" style="fill: none; stroke: #b65045; stroke-width: 1.5; stroke-linecap: round"/>
    <g clip-path="url(#p53420345b4)">
     <use xlink:href="#m423912681d" x="558.029523" y="106.586753" style="fill: #b65045; stroke: #b65045; stroke-linejoin: miter"/>
     <use xlink:href="#m423912681d" x="620.165339" y="114.074293" style="fill: #b65045; stroke: #b65045; stroke-linejoin: miter"/>
     <use xlink:href="#m423912681d" x="682.301155" y="97.308279" style="fill: #b65045; stroke: #b65045; stroke-linejoin: miter"/>
     <use xlink:href="#m423912681d" x="744.436971" y="87.695858" style="fill: #b65045; stroke: #b65045; stroke-linejoin: miter"/>
    </g>
   </g>
   <g id="line2d_48">
    <path d="M 548.709151 81.504 
L 753.757344 81.504 
" clip-path="url(#p53420345b4)" style="fill: none; stroke: #202433; stroke-width: 0.9; stroke-linecap: round"/>
   </g>
   <g id="patch_13">
    <path d="M 548.709151 278.064 
L 548.709151 72.144 
" style="fill: none; stroke: #d7dbe7; stroke-width: 1.25; stroke-linejoin: miter; stroke-linecap: square"/>
   </g>
   <g id="patch_14">
    <path d="M 753.757344 278.064 
L 753.757344 72.144 
" style="fill: none; stroke: #d7dbe7; stroke-width: 1.25; stroke-linejoin: miter; stroke-linecap: square"/>
   </g>
   <g id="patch_15">
    <path d="M 548.709151 278.064 
L 753.757344 278.064 
" style="fill: none; stroke: #d7dbe7; stroke-width: 1.25; stroke-linejoin: miter; stroke-linecap: square"/>
   </g>
   <g id="patch_16">
    <path d="M 548.709151 72.144 
L 753.757344 72.144 
" style="fill: none; stroke: #d7dbe7; stroke-width: 1.25; stroke-linejoin: miter; stroke-linecap: square"/>
   </g>
   <g id="text_28">
    <!-- Aridity -->
    <g style="fill: #202433" transform="translate(633.900747 66.144) scale(0.12 -0.12)">
     <defs>
      <path id="SegoeUI-41" d="M 4056 0 
L 3475 0 
L 3000 1256 
L 1100 1256 
L 653 0 
L 69 0 
L 1788 4481 
L 2331 4481 
L 4056 0 
z
M 2828 1728 
L 2125 3638 
Q 2091 3731 2056 3938 
L 2044 3938 
Q 2013 3747 1972 3638 
L 1275 1728 
L 2828 1728 
z
" transform="scale(0.015625)"/>
      <path id="SegoeUI-64" d="M 3250 0 
L 2738 0 
L 2738 544 
L 2725 544 
Q 2369 -75 1625 -75 
Q 1022 -75 661 354 
Q 300 784 300 1525 
Q 300 2319 700 2797 
Q 1100 3275 1766 3275 
Q 2425 3275 2725 2756 
L 2738 2756 
L 2738 4738 
L 3250 4738 
L 3250 0 
z
M 2738 1447 
L 2738 1919 
Q 2738 2306 2481 2575 
Q 2225 2844 1831 2844 
Q 1363 2844 1094 2500 
Q 825 2156 825 1550 
Q 825 997 1083 676 
Q 1341 356 1775 356 
Q 2203 356 2470 665 
Q 2738 975 2738 1447 
z
" transform="scale(0.015625)"/>
      <path id="SegoeUI-79" d="M 3066 3200 
L 1594 -513 
Q 1200 -1506 488 -1506 
Q 288 -1506 153 -1466 
L 153 -1006 
Q 319 -1063 456 -1063 
Q 844 -1063 1038 -600 
L 1294 6 
L 44 3200 
L 613 3200 
L 1478 738 
Q 1494 691 1544 494 
L 1563 494 
Q 1578 569 1625 731 
L 2534 3200 
L 3066 3200 
z
" transform="scale(0.015625)"/>
     </defs>
     <use xlink:href="#SegoeUI-41"/>
     <use xlink:href="#SegoeUI-72" transform="translate(64.501953 0)"/>
     <use xlink:href="#SegoeUI-69" transform="translate(99.267578 0)"/>
     <use xlink:href="#SegoeUI-64" transform="translate(123.486328 0)"/>
     <use xlink:href="#SegoeUI-69" transform="translate(182.373047 0)"/>
     <use xlink:href="#SegoeUI-74" transform="translate(206.591797 0)"/>
     <use xlink:href="#SegoeUI-79" transform="translate(240.478516 0)"/>
    </g>
   </g>
   <g id="legend_1">
    <g id="line2d_49">
     <path d="M 676.865625 86.337437 
L 687.865625 86.337437 
L 698.865625 86.337437 
" style="fill: none; stroke: #3d6dcc; stroke-width: 1.5; stroke-linecap: round"/>
     <g>
      <use xlink:href="#m103a6e4e95" x="687.865625" y="86.337437" style="fill: #3d6dcc; stroke: #3d6dcc"/>
     </g>
    </g>
    <g id="text_29">
     <!-- mean -->
     <g style="fill: #262626" transform="translate(707.665625 90.187437) scale(0.11 -0.11)">
      <use xlink:href="#SegoeUI-6d"/>
      <use xlink:href="#SegoeUI-65" transform="translate(86.132812 0)"/>
      <use xlink:href="#SegoeUI-61" transform="translate(138.427734 0)"/>
      <use xlink:href="#SegoeUI-6e" transform="translate(189.306641 0)"/>
     </g>
    </g>
    <g id="line2d_50">
     <path d="M 676.865625 102.510875 
L 687.865625 102.510875 
L 698.865625 102.510875 
" style="fill: none; stroke: #b65045; stroke-width: 1.5; stroke-linecap: round"/>
     <g>
      <use xlink:href="#m423912681d" x="687.865625" y="102.510875" style="fill: #b65045; stroke: #b65045; stroke-linejoin: miter"/>
     </g>
    </g>
    <g id="text_30">
     <!-- median -->
     <g style="fill: #262626" transform="translate(707.665625 106.360875) scale(0.11 -0.11)">
      <use xlink:href="#SegoeUI-6d"/>
      <use xlink:href="#SegoeUI-65" transform="translate(86.132812 0)"/>
      <use xlink:href="#SegoeUI-64" transform="translate(138.427734 0)"/>
      <use xlink:href="#SegoeUI-69" transform="translate(197.314453 0)"/>
      <use xlink:href="#SegoeUI-61" transform="translate(221.533203 0)"/>
      <use xlink:href="#SegoeUI-6e" transform="translate(272.412109 0)"/>
     </g>
    </g>
   </g>
  </g>
  <g id="text_31">
   <!-- Hydroclimate gradients of epsilon change -->
   <g style="fill: #202433" transform="translate(15.901344 18.480469) scale(0.15 -0.15)">
    <defs>
     <path id="SegoeUI-Bold-48" d="M 4391 0 
L 3378 0 
L 3378 1825 
L 1522 1825 
L 1522 0 
L 513 0 
L 513 4481 
L 1522 4481 
L 1522 2694 
L 3378 2694 
L 3378 4481 
L 4391 4481 
L 4391 0 
z
" transform="scale(0.015625)"/>
     <path id="SegoeUI-Bold-79" d="M 3463 3200 
L 2163 -256 
Q 1694 -1503 750 -1503 
Q 391 -1503 159 -1422 
L 159 -634 
Q 356 -750 588 -750 
Q 969 -750 1119 -391 
L 1288 6 
L -13 3200 
L 1081 3200 
L 1678 1253 
Q 1734 1072 1766 825 
L 1778 825 
Q 1806 1006 1881 1247 
L 2484 3200 
L 3463 3200 
z
" transform="scale(0.015625)"/>
     <path id="SegoeUI-Bold-64" d="M 3547 0 
L 2559 0 
L 2559 441 
L 2547 441 
Q 2209 -78 1556 -78 
Q 956 -78 590 345 
Q 225 769 225 1528 
Q 225 2322 628 2800 
Q 1031 3278 1684 3278 
Q 2303 3278 2547 2834 
L 2559 2834 
L 2559 4738 
L 3547 4738 
L 3547 0 
z
M 2578 1556 
L 2578 1797 
Q 2578 2109 2397 2315 
Q 2216 2522 1925 2522 
Q 1597 2522 1412 2264 
Q 1228 2006 1228 1556 
Q 1228 1134 1406 906 
Q 1584 678 1900 678 
Q 2200 678 2389 918 
Q 2578 1159 2578 1556 
z
" transform="scale(0.015625)"/>
     <path id="SegoeUI-Bold-72" d="M 2503 2309 
Q 2325 2406 2088 2406 
Q 1766 2406 1584 2170 
Q 1403 1934 1403 1528 
L 1403 0 
L 416 0 
L 416 3200 
L 1403 3200 
L 1403 2606 
L 1416 2606 
Q 1650 3256 2259 3256 
Q 2416 3256 2503 3219 
L 2503 2309 
z
" transform="scale(0.015625)"/>
     <path id="SegoeUI-Bold-6f" d="M 1941 -78 
Q 1141 -78 683 370 
Q 225 819 225 1588 
Q 225 2381 700 2829 
Q 1175 3278 1984 3278 
Q 2781 3278 3234 2829 
Q 3688 2381 3688 1644 
Q 3688 847 3220 384 
Q 2753 -78 1941 -78 
z
M 1966 2522 
Q 1616 2522 1422 2281 
Q 1228 2041 1228 1600 
Q 1228 678 1972 678 
Q 2681 678 2681 1625 
Q 2681 2522 1966 2522 
z
" transform="scale(0.015625)"/>
     <path id="SegoeUI-Bold-63" d="M 2841 116 
Q 2506 -78 1875 -78 
Q 1138 -78 681 369 
Q 225 816 225 1522 
Q 225 2338 714 2808 
Q 1203 3278 2022 3278 
Q 2588 3278 2841 3128 
L 2841 2291 
Q 2531 2522 2150 2522 
Q 1725 2522 1476 2273 
Q 1228 2025 1228 1588 
Q 1228 1163 1465 920 
Q 1703 678 2119 678 
Q 2488 678 2841 909 
L 2841 116 
z
" transform="scale(0.015625)"/>
     <path id="SegoeUI-Bold-6c" d="M 1403 0 
L 416 0 
L 416 4738 
L 1403 4738 
L 1403 0 
z
" transform="scale(0.015625)"/>
     <path id="SegoeUI-Bold-69" d="M 916 3706 
Q 666 3706 506 3854 
Q 347 4003 347 4219 
Q 347 4441 506 4581 
Q 666 4722 916 4722 
Q 1169 4722 1326 4581 
Q 1484 4441 1484 4219 
Q 1484 3994 1326 3850 
Q 1169 3706 916 3706 
z
M 1403 0 
L 416 0 
L 416 3200 
L 1403 3200 
L 1403 0 
z
" transform="scale(0.015625)"/>
     <path id="SegoeUI-Bold-6d" d="M 5497 0 
L 4513 0 
L 4513 1825 
Q 4513 2522 4000 2522 
Q 3756 2522 3603 2312 
Q 3450 2103 3450 1791 
L 3450 0 
L 2463 0 
L 2463 1844 
Q 2463 2522 1959 2522 
Q 1706 2522 1554 2322 
Q 1403 2122 1403 1778 
L 1403 0 
L 416 0 
L 416 3200 
L 1403 3200 
L 1403 2700 
L 1416 2700 
Q 1569 2956 1845 3117 
Q 2122 3278 2450 3278 
Q 3128 3278 3378 2681 
Q 3744 3278 4453 3278 
Q 5497 3278 5497 1991 
L 5497 0 
z
" transform="scale(0.015625)"/>
     <path id="SegoeUI-Bold-61" d="M 3078 0 
L 2144 0 
L 2144 459 
L 2131 459 
Q 1809 -78 1178 -78 
Q 713 -78 445 186 
Q 178 450 178 891 
Q 178 1822 1281 1966 
L 2150 2081 
Q 2150 2606 1581 2606 
Q 1009 2606 494 2266 
L 494 3009 
Q 700 3116 1058 3197 
Q 1416 3278 1709 3278 
Q 3078 3278 3078 1913 
L 3078 0 
z
M 2150 1300 
L 2150 1516 
L 1569 1441 
Q 1088 1378 1088 1006 
Q 1088 838 1205 730 
Q 1322 622 1522 622 
Q 1800 622 1975 814 
Q 2150 1006 2150 1300 
z
" transform="scale(0.015625)"/>
     <path id="SegoeUI-Bold-74" d="M 2350 38 
Q 2131 -78 1691 -78 
Q 647 -78 647 1006 
L 647 2472 
L 128 2472 
L 128 3200 
L 647 3200 
L 647 3891 
L 1631 4172 
L 1631 3200 
L 2350 3200 
L 2350 2472 
L 1631 2472 
L 1631 1178 
Q 1631 678 2028 678 
Q 2184 678 2350 769 
L 2350 38 
z
" transform="scale(0.015625)"/>
     <path id="SegoeUI-Bold-65" d="M 3291 1319 
L 1203 1319 
Q 1253 622 2081 622 
Q 2609 622 3009 872 
L 3009 159 
Q 2566 -78 1856 -78 
Q 1081 -78 653 351 
Q 225 781 225 1550 
Q 225 2347 687 2812 
Q 1150 3278 1825 3278 
Q 2525 3278 2908 2862 
Q 3291 2447 3291 1734 
L 3291 1319 
z
M 2375 1925 
Q 2375 2613 1819 2613 
Q 1581 2613 1407 2416 
Q 1234 2219 1197 1925 
L 2375 1925 
z
" transform="scale(0.015625)"/>
     <path id="SegoeUI-Bold-20" transform="scale(0.015625)"/>
     <path id="SegoeUI-Bold-67" d="M 3553 366 
Q 3553 -525 3037 -1014 
Q 2522 -1503 1544 -1503 
Q 897 -1503 519 -1319 
L 519 -488 
Q 1013 -775 1516 -775 
Q 2016 -775 2291 -511 
Q 2566 -247 2566 206 
L 2566 459 
L 2553 459 
Q 2216 -78 1556 -78 
Q 944 -78 584 353 
Q 225 784 225 1509 
Q 225 2322 625 2800 
Q 1025 3278 1678 3278 
Q 2263 3278 2553 2828 
L 2566 2828 
L 2566 3200 
L 3553 3200 
L 3553 366 
z
M 2578 1538 
L 2578 1791 
Q 2578 2094 2398 2308 
Q 2219 2522 1931 2522 
Q 1603 2522 1415 2265 
Q 1228 2009 1228 1544 
Q 1228 1144 1406 911 
Q 1584 678 1894 678 
Q 2200 678 2389 914 
Q 2578 1150 2578 1538 
z
" transform="scale(0.015625)"/>
     <path id="SegoeUI-Bold-6e" d="M 3506 0 
L 2522 0 
L 2522 1778 
Q 2522 2522 1991 2522 
Q 1734 2522 1568 2325 
Q 1403 2128 1403 1825 
L 1403 0 
L 416 0 
L 416 3200 
L 1403 3200 
L 1403 2694 
L 1416 2694 
Q 1769 3278 2444 3278 
Q 3506 3278 3506 1959 
L 3506 0 
z
" transform="scale(0.015625)"/>
     <path id="SegoeUI-Bold-73" d="M 206 84 
L 206 884 
Q 450 738 692 666 
Q 934 594 1150 594 
Q 1413 594 1564 666 
Q 1716 738 1716 884 
Q 1716 978 1647 1040 
Q 1578 1103 1470 1150 
Q 1363 1197 1234 1234 
Q 1106 1272 988 1319 
Q 797 1391 651 1473 
Q 506 1556 407 1665 
Q 309 1775 257 1919 
Q 206 2063 206 2259 
Q 206 2528 323 2722 
Q 441 2916 636 3039 
Q 831 3163 1082 3220 
Q 1334 3278 1606 3278 
Q 1819 3278 2037 3245 
Q 2256 3213 2469 3150 
L 2469 2388 
Q 2281 2497 2067 2551 
Q 1853 2606 1647 2606 
Q 1550 2606 1464 2589 
Q 1378 2572 1312 2539 
Q 1247 2506 1209 2454 
Q 1172 2403 1172 2338 
Q 1172 2250 1228 2187 
Q 1284 2125 1375 2079 
Q 1466 2034 1577 1998 
Q 1688 1963 1797 1925 
Q 1994 1856 2153 1775 
Q 2313 1694 2427 1584 
Q 2541 1475 2602 1328 
Q 2663 1181 2663 978 
Q 2663 694 2539 492 
Q 2416 291 2211 164 
Q 2006 38 1739 -20 
Q 1472 -78 1184 -78 
Q 656 -78 206 84 
z
" transform="scale(0.015625)"/>
     <path id="SegoeUI-Bold-66" d="M 2503 3981 
Q 2313 4056 2138 4056 
Q 1663 4056 1663 3541 
L 1663 3200 
L 2394 3200 
L 2394 2472 
L 1663 2472 
L 1663 0 
L 678 0 
L 678 2472 
L 141 2472 
L 141 3200 
L 678 3200 
L 678 3597 
Q 678 4144 1034 4478 
Q 1391 4813 2003 4813 
Q 2303 4813 2503 4750 
L 2503 3981 
z
" transform="scale(0.015625)"/>
     <path id="SegoeUI-Bold-70" d="M 1416 372 
L 1403 372 
L 1403 -1472 
L 416 -1472 
L 416 3200 
L 1403 3200 
L 1403 2719 
L 1416 2719 
Q 1781 3278 2444 3278 
Q 3066 3278 3405 2851 
Q 3744 2425 3744 1691 
Q 3744 891 3348 406 
Q 2953 -78 2297 -78 
Q 1719 -78 1416 372 
z
M 1388 1684 
L 1388 1428 
Q 1388 1097 1563 887 
Q 1738 678 2022 678 
Q 2359 678 2545 939 
Q 2731 1200 2731 1678 
Q 2731 2522 2075 2522 
Q 1772 2522 1580 2292 
Q 1388 2063 1388 1684 
z
" transform="scale(0.015625)"/>
     <path id="SegoeUI-Bold-68" d="M 3488 0 
L 2503 0 
L 2503 1819 
Q 2503 2522 1991 2522 
Q 1728 2522 1565 2325 
Q 1403 2128 1403 1825 
L 1403 0 
L 416 0 
L 416 4738 
L 1403 4738 
L 1403 2725 
L 1416 2725 
Q 1778 3278 2400 3278 
Q 3488 3278 3488 1966 
L 3488 0 
z
" transform="scale(0.015625)"/>
    </defs>
    <use xlink:href="#SegoeUI-Bold-48"/>
    <use xlink:href="#SegoeUI-Bold-79" transform="translate(76.611328 0)"/>
    <use xlink:href="#SegoeUI-Bold-64" transform="translate(129.419922 0)"/>
    <use xlink:href="#SegoeUI-Bold-72" transform="translate(191.333984 0)"/>
    <use xlink:href="#SegoeUI-Bold-6f" transform="translate(230.753906 0)"/>
    <use xlink:href="#SegoeUI-Bold-63" transform="translate(291.886719 0)"/>
    <use xlink:href="#SegoeUI-Bold-6c" transform="translate(339.884766 0)"/>
    <use xlink:href="#SegoeUI-Bold-69" transform="translate(368.302734 0)"/>
    <use xlink:href="#SegoeUI-Bold-6d" transform="translate(396.720703 0)"/>
    <use xlink:href="#SegoeUI-Bold-61" transform="translate(488.322266 0)"/>
    <use xlink:href="#SegoeUI-Bold-74" transform="translate(542.130859 0)"/>
    <use xlink:href="#SegoeUI-Bold-65" transform="translate(580.671875 0)"/>
    <use xlink:href="#SegoeUI-Bold-20" transform="translate(634.773438 0)"/>
    <use xlink:href="#SegoeUI-Bold-67" transform="translate(662.361328 0)"/>
    <use xlink:href="#SegoeUI-Bold-72" transform="translate(724.275391 0)"/>
    <use xlink:href="#SegoeUI-Bold-61" transform="translate(764.070312 0)"/>
    <use xlink:href="#SegoeUI-Bold-64" transform="translate(817.878906 0)"/>
    <use xlink:href="#SegoeUI-Bold-69" transform="translate(879.792969 0)"/>
    <use xlink:href="#SegoeUI-Bold-65" transform="translate(908.210938 0)"/>
    <use xlink:href="#SegoeUI-Bold-6e" transform="translate(962.3125 0)"/>
    <use xlink:href="#SegoeUI-Bold-74" transform="translate(1022.810547 0)"/>
    <use xlink:href="#SegoeUI-Bold-73" transform="translate(1061.726562 0)"/>
    <use xlink:href="#SegoeUI-Bold-20" transform="translate(1105.720703 0)"/>
    <use xlink:href="#SegoeUI-Bold-6f" transform="translate(1133.308594 0)"/>
    <use xlink:href="#SegoeUI-Bold-66" transform="translate(1192.941406 0)"/>
    <use xlink:href="#SegoeUI-Bold-20" transform="translate(1231.271484 0)"/>
    <use xlink:href="#SegoeUI-Bold-65" transform="translate(1258.859375 0)"/>
    <use xlink:href="#SegoeUI-Bold-70" transform="translate(1312.960938 0)"/>
    <use xlink:href="#SegoeUI-Bold-73" transform="translate(1374.972656 0)"/>
    <use xlink:href="#SegoeUI-Bold-69" transform="translate(1418.966797 0)"/>
    <use xlink:href="#SegoeUI-Bold-6c" transform="translate(1447.384766 0)"/>
    <use xlink:href="#SegoeUI-Bold-6f" transform="translate(1475.802734 0)"/>
    <use xlink:href="#SegoeUI-Bold-6e" transform="translate(1536.935547 0)"/>
    <use xlink:href="#SegoeUI-Bold-20" transform="translate(1597.433594 0)"/>
    <use xlink:href="#SegoeUI-Bold-63" transform="translate(1625.021484 0)"/>
    <use xlink:href="#SegoeUI-Bold-68" transform="translate(1673.019531 0)"/>
    <use xlink:href="#SegoeUI-Bold-61" transform="translate(1733.224609 0)"/>
    <use xlink:href="#SegoeUI-Bold-6e" transform="translate(1787.033203 0)"/>
    <use xlink:href="#SegoeUI-Bold-67" transform="translate(1847.53125 0)"/>
    <use xlink:href="#SegoeUI-Bold-65" transform="translate(1909.445312 0)"/>
   </g>
  </g>
  <g id="text_32">
   <!-- Catchments are binned into quartiles for each static hydroclimate attribute. -->
   <g style="fill: #6f768a" transform="translate(15.901344 27.005906) scale(0.095 -0.095)">
    <defs>
     <path id="SegoeUI-43" d="M 3638 188 
Q 3141 -75 2400 -75 
Q 1444 -75 869 540 
Q 294 1156 294 2156 
Q 294 3231 941 3893 
Q 1588 4556 2581 4556 
Q 3219 4556 3638 4372 
L 3638 3813 
Q 3156 4081 2575 4081 
Q 1803 4081 1323 3565 
Q 844 3050 844 2188 
Q 844 1369 1292 883 
Q 1741 397 2469 397 
Q 3144 397 3638 697 
L 3638 188 
z
" transform="scale(0.015625)"/>
     <path id="SegoeUI-68" d="M 3175 0 
L 2663 0 
L 2663 1844 
Q 2663 2844 1919 2844 
Q 1544 2844 1287 2555 
Q 1031 2266 1031 1813 
L 1031 0 
L 519 0 
L 519 4738 
L 1031 4738 
L 1031 2669 
L 1044 2669 
Q 1413 3275 2094 3275 
Q 3175 3275 3175 1972 
L 3175 0 
z
" transform="scale(0.015625)"/>
     <path id="SegoeUI-62" d="M 1044 463 
L 1031 463 
L 1031 0 
L 519 0 
L 519 4738 
L 1031 4738 
L 1031 2638 
L 1044 2638 
Q 1422 3275 2150 3275 
Q 2766 3275 3114 2845 
Q 3463 2416 3463 1694 
Q 3463 891 3072 408 
Q 2681 -75 2003 -75 
Q 1369 -75 1044 463 
z
M 1031 1753 
L 1031 1306 
Q 1031 909 1289 632 
Q 1547 356 1944 356 
Q 2409 356 2673 712 
Q 2938 1069 2938 1703 
Q 2938 2238 2691 2541 
Q 2444 2844 2022 2844 
Q 1575 2844 1303 2533 
Q 1031 2222 1031 1753 
z
" transform="scale(0.015625)"/>
     <path id="SegoeUI-71" d="M 3250 -1472 
L 2738 -1472 
L 2738 550 
L 2725 550 
Q 2391 -75 1631 -75 
Q 1028 -75 664 354 
Q 300 784 300 1525 
Q 300 2322 700 2798 
Q 1100 3275 1775 3275 
Q 2431 3275 2725 2756 
L 2738 2756 
L 2738 3200 
L 3250 3200 
L 3250 -1472 
z
M 2738 1441 
L 2738 1906 
Q 2738 2300 2480 2572 
Q 2222 2844 1825 2844 
Q 1363 2844 1094 2501 
Q 825 2159 825 1538 
Q 825 984 1084 670 
Q 1344 356 1753 356 
Q 2203 356 2470 664 
Q 2738 972 2738 1441 
z
" transform="scale(0.015625)"/>
     <path id="SegoeUI-66" d="M 2100 4288 
Q 1950 4372 1759 4372 
Q 1222 4372 1222 3694 
L 1222 3200 
L 1972 3200 
L 1972 2763 
L 1222 2763 
L 1222 0 
L 713 0 
L 713 2763 
L 166 2763 
L 166 3200 
L 713 3200 
L 713 3719 
Q 713 4222 1003 4514 
Q 1294 4806 1728 4806 
Q 1963 4806 2100 4750 
L 2100 4288 
z
" transform="scale(0.015625)"/>
    </defs>
    <use xlink:href="#SegoeUI-43"/>
    <use xlink:href="#SegoeUI-61" transform="translate(61.914062 0)"/>
    <use xlink:href="#SegoeUI-74" transform="translate(112.792969 0)"/>
    <use xlink:href="#SegoeUI-63" transform="translate(145.304688 0)"/>
    <use xlink:href="#SegoeUI-68" transform="translate(191.496094 0)"/>
    <use xlink:href="#SegoeUI-6d" transform="translate(248.087891 0)"/>
    <use xlink:href="#SegoeUI-65" transform="translate(334.220703 0)"/>
    <use xlink:href="#SegoeUI-6e" transform="translate(386.515625 0)"/>
    <use xlink:href="#SegoeUI-74" transform="translate(443.107422 0)"/>
    <use xlink:href="#SegoeUI-73" transform="translate(476.994141 0)"/>
    <use xlink:href="#SegoeUI-20" transform="translate(519.425781 0)"/>
    <use xlink:href="#SegoeUI-61" transform="translate(546.818359 0)"/>
    <use xlink:href="#SegoeUI-72" transform="translate(597.697266 0)"/>
    <use xlink:href="#SegoeUI-65" transform="translate(631.087891 0)"/>
    <use xlink:href="#SegoeUI-20" transform="translate(683.382812 0)"/>
    <use xlink:href="#SegoeUI-62" transform="translate(710.775391 0)"/>
    <use xlink:href="#SegoeUI-69" transform="translate(769.564453 0)"/>
    <use xlink:href="#SegoeUI-6e" transform="translate(793.783203 0)"/>
    <use xlink:href="#SegoeUI-6e" transform="translate(850.375 0)"/>
    <use xlink:href="#SegoeUI-65" transform="translate(906.966797 0)"/>
    <use xlink:href="#SegoeUI-64" transform="translate(959.261719 0)"/>
    <use xlink:href="#SegoeUI-20" transform="translate(1018.148438 0)"/>
    <use xlink:href="#SegoeUI-69" transform="translate(1045.541016 0)"/>
    <use xlink:href="#SegoeUI-6e" transform="translate(1069.759766 0)"/>
    <use xlink:href="#SegoeUI-74" transform="translate(1126.351562 0)"/>
    <use xlink:href="#SegoeUI-6f" transform="translate(1159.488281 0)"/>
    <use xlink:href="#SegoeUI-20" transform="translate(1218.082031 0)"/>
    <use xlink:href="#SegoeUI-71" transform="translate(1245.474609 0)"/>
    <use xlink:href="#SegoeUI-75" transform="translate(1304.361328 0)"/>
    <use xlink:href="#SegoeUI-61" transform="translate(1360.953125 0)"/>
    <use xlink:href="#SegoeUI-72" transform="translate(1411.832031 0)"/>
    <use xlink:href="#SegoeUI-74" transform="translate(1449.472656 0)"/>
    <use xlink:href="#SegoeUI-69" transform="translate(1483.359375 0)"/>
    <use xlink:href="#SegoeUI-6c" transform="translate(1507.578125 0)"/>
    <use xlink:href="#SegoeUI-65" transform="translate(1531.796875 0)"/>
    <use xlink:href="#SegoeUI-73" transform="translate(1584.091797 0)"/>
    <use xlink:href="#SegoeUI-20" transform="translate(1626.523438 0)"/>
    <use xlink:href="#SegoeUI-66" transform="translate(1653.916016 0)"/>
    <use xlink:href="#SegoeUI-6f" transform="translate(1685.214844 0)"/>
    <use xlink:href="#SegoeUI-72" transform="translate(1743.808594 0)"/>
    <use xlink:href="#SegoeUI-20" transform="translate(1778.574219 0)"/>
    <use xlink:href="#SegoeUI-65" transform="translate(1805.966797 0)"/>
    <use xlink:href="#SegoeUI-61" transform="translate(1858.261719 0)"/>
    <use xlink:href="#SegoeUI-63" transform="translate(1909.140625 0)"/>
    <use xlink:href="#SegoeUI-68" transform="translate(1955.332031 0)"/>
    <use xlink:href="#SegoeUI-20" transform="translate(2011.923828 0)"/>
    <use xlink:href="#SegoeUI-73" transform="translate(2039.316406 0)"/>
    <use xlink:href="#SegoeUI-74" transform="translate(2081.748047 0)"/>
    <use xlink:href="#SegoeUI-61" transform="translate(2115.634766 0)"/>
    <use xlink:href="#SegoeUI-74" transform="translate(2166.513672 0)"/>
    <use xlink:href="#SegoeUI-69" transform="translate(2200.400391 0)"/>
    <use xlink:href="#SegoeUI-63" transform="translate(2224.619141 0)"/>
    <use xlink:href="#SegoeUI-20" transform="translate(2270.810547 0)"/>
    <use xlink:href="#SegoeUI-68" transform="translate(2298.203125 0)"/>
    <use xlink:href="#SegoeUI-79" transform="translate(2354.794922 0)"/>
    <use xlink:href="#SegoeUI-64" transform="translate(2402.683594 0)"/>
    <use xlink:href="#SegoeUI-72" transform="translate(2461.570312 0)"/>
    <use xlink:href="#SegoeUI-6f" transform="translate(2494.960938 0)"/>
    <use xlink:href="#SegoeUI-63" transform="translate(2553.554688 0)"/>
    <use xlink:href="#SegoeUI-6c" transform="translate(2599.746094 0)"/>
    <use xlink:href="#SegoeUI-69" transform="translate(2623.964844 0)"/>
    <use xlink:href="#SegoeUI-6d" transform="translate(2648.183594 0)"/>
    <use xlink:href="#SegoeUI-61" transform="translate(2734.316406 0)"/>
    <use xlink:href="#SegoeUI-74" transform="translate(2785.195312 0)"/>
    <use xlink:href="#SegoeUI-65" transform="translate(2818.332031 0)"/>
    <use xlink:href="#SegoeUI-20" transform="translate(2870.626953 0)"/>
    <use xlink:href="#SegoeUI-61" transform="translate(2898.019531 0)"/>
    <use xlink:href="#SegoeUI-74" transform="translate(2948.898438 0)"/>
    <use xlink:href="#SegoeUI-74" transform="translate(2982.785156 0)"/>
    <use xlink:href="#SegoeUI-72" transform="translate(3016.671875 0)"/>
    <use xlink:href="#SegoeUI-69" transform="translate(3051.4375 0)"/>
    <use xlink:href="#SegoeUI-62" transform="translate(3075.65625 0)"/>
    <use xlink:href="#SegoeUI-75" transform="translate(3134.445312 0)"/>
    <use xlink:href="#SegoeUI-74" transform="translate(3191.037109 0)"/>
    <use xlink:href="#SegoeUI-65" transform="translate(3224.173828 0)"/>
    <use xlink:href="#SegoeUI-2e" transform="translate(3276.46875 0)"/>
   </g>
  </g>
 </g>
 <defs>
  <clipPath id="p70c4783608">
   <rect x="72.997344" y="72.144" width="205.048193" height="205.92"/>
  </clipPath>
  <clipPath id="p3a20065f84">
   <rect x="310.853247" y="72.144" width="205.048193" height="205.92"/>
  </clipPath>
  <clipPath id="p53420345b4">
   <rect x="548.709151" y="72.144" width="205.048193" height="205.92"/>
  </clipPath>
 </defs>
</svg>
